<svg width="157" height="45" viewBox="0 0 157 45" fill="none" xmlns="http://www.w3.org/2000/svg">
    <g clip-path="url(#clip0_107_811)">
        <mask id="mask0_107_811" style="mask-type:luminance" maskUnits="userSpaceOnUse" x="0" y="0" width="157"
              height="45">
            <path d="M157 0H0V45H157V0Z" fill="white"/>
        </mask>
        <g mask="url(#mask0_107_811)">
            <g style="mix-blend-mode:multiply">
                <path d="M7.77756 17.9944L0 13.515L23.4658 0L46.9297 13.515L23.4658 27.03V27.0281L15.5608 22.4776L7.77756 26.9589V17.9944Z"
                      fill="#6DBE93"/>
            </g>
            <g style="mix-blend-mode:multiply">
                <path d="M7.77756 26.9403L0 22.4627L23.4658 8.94775V8.94961L46.9297 22.4627L23.4658 35.9777V35.9758L15.5608 31.4235L7.77756 35.9066V26.9403Z"
                      fill="#CBAE78"/>
            </g>
            <g style="mix-blend-mode:multiply">
                <path d="M7.77756 35.9234L0 31.444L23.4658 17.929L46.9297 31.444L23.4658 44.9572L15.5608 40.4047L7.77756 44.8879V35.9234Z"
                      fill="#D26949"/>
            </g>
            <path d="M67.5114 20.5614H61.2141V10.8865H63.2082V18.7367H67.5114V20.5632V20.5614Z" fill="#3C3C3B"/>
            <path d="M68.5625 15.4367C68.7669 14.3056 69.6549 13.2568 71.7446 13.2568C73.8342 13.2568 74.8859 14.2514 74.8859 15.9153V18.6823C74.8859 18.9814 75.0093 19.1459 75.268 19.1459C75.4179 19.1459 75.4723 19.1328 75.4723 19.1328V20.6042C75.4723 20.6042 75.3224 20.6584 74.9664 20.6584C74.2972 20.6584 73.6546 20.4677 73.3415 19.7722C72.7679 20.3854 71.9882 20.7257 70.8693 20.7257C69.1339 20.7257 68.3564 19.7853 68.3564 18.6262C68.3564 17.3867 69.2317 16.5828 71.1431 16.2687L73.0417 15.9546V15.9004C73.0417 15.2049 72.618 14.8516 71.7446 14.8516C70.8715 14.8516 70.5023 15.2068 70.4196 15.7789L68.5625 15.4386V15.4367ZM71.3364 17.6447C70.5434 17.7942 70.2303 18.0391 70.2303 18.4748C70.2303 18.9103 70.489 19.2245 71.3098 19.2245C72.4438 19.2245 73.0435 18.5701 73.0435 17.5886V17.3306L71.3364 17.6447Z"
                  fill="#3C3C3B"/>
            <path d="M78.7522 14.2926C79.0804 13.6794 79.8185 13.2568 80.883 13.2568C82.6033 13.2568 83.5201 14.4029 83.5201 16.1041V20.5612H81.5804V16.3229C81.5804 15.491 81.224 14.9189 80.3638 14.9189C79.4213 14.9189 78.9021 15.519 78.9021 16.4725V20.5612H76.9624V13.4214H78.7522V14.2944V14.2926Z"
                  fill="#3C3C3B"/>
            <path d="M90.1862 10.3406H92.1259V20.5614H90.3361V19.6883C89.8845 20.3427 89.0783 20.7241 88.0682 20.7241C85.9918 20.7241 84.7756 19.062 84.7756 16.9906C84.7756 14.9191 85.9918 13.2571 88.0682 13.2571C89.0783 13.2571 89.8169 13.6927 90.1862 14.1844V10.3406ZM88.4786 14.9602C87.3991 14.9602 86.7171 15.8333 86.7171 16.9906C86.7171 18.1478 87.4013 19.0209 88.4786 19.0209C89.5564 19.0209 90.2406 18.1478 90.2406 16.9906C90.2406 15.8333 89.5582 14.9602 88.4786 14.9602Z"
                  fill="#3C3C3B"/>
            <path d="M98.9418 17.4279C99.0245 18.2861 99.5848 18.9815 100.84 18.9815C101.907 18.9815 102.547 18.5721 102.547 17.8636C102.547 15.9566 97.4107 17.4541 97.4107 13.6664C97.4107 12.0305 98.7074 10.6826 100.949 10.6826C103.067 10.6826 104.322 11.9633 104.529 13.558L102.602 13.9132C102.561 13.0681 101.959 12.455 100.923 12.455C99.9802 12.455 99.3783 12.9186 99.3783 13.5449C99.3783 15.4799 104.57 13.9543 104.57 17.7962C104.57 19.5275 103.041 20.7539 100.732 20.7539C98.2183 20.7539 97.1931 19.3087 97.0171 17.8243L98.9435 17.4298L98.9418 17.4279Z"
                  fill="#3C3C3B"/>
            <path d="M105.676 16.9903C105.676 14.96 107.137 13.2568 109.433 13.2568C111.729 13.2568 113.189 14.96 113.189 16.9903C113.189 19.0207 111.727 20.7238 109.433 20.7238C107.139 20.7238 105.676 19.0207 105.676 16.9903ZM109.433 19.0207C110.458 19.0207 111.249 18.271 111.249 16.9903C111.249 15.7097 110.456 14.96 109.433 14.96C108.41 14.96 107.615 15.7097 107.615 16.9903C107.615 18.271 108.408 19.0207 109.433 19.0207Z"
                  fill="#3C3C3B"/>
            <path d="M114.308 11.335C114.308 10.6527 114.799 10.1628 115.483 10.1628C116.167 10.1628 116.658 10.6527 116.658 11.335C116.658 12.0175 116.167 12.4923 115.483 12.4923C114.799 12.4923 114.308 12.0156 114.308 11.335ZM114.512 13.4196H116.451V20.5594H114.512V13.4196Z"
                  fill="#3C3C3B"/>
            <path d="M118.229 20.5614V10.3406H120.168V20.5614H118.229Z" fill="#3C3C3B"/>
            <path d="M130.058 10.6827C132.325 10.6827 134.157 11.9502 134.675 14.0479L132.625 14.4704C132.339 13.2571 131.355 12.5765 130.058 12.5765C128.281 12.5765 127.284 13.803 127.284 15.7099C127.284 17.6169 128.281 18.8433 130.058 18.8433C131.355 18.8433 132.339 18.1628 132.625 16.9494L134.675 17.372C134.157 19.4715 132.325 20.7372 130.058 20.7372C127.271 20.7372 125.181 18.7348 125.181 15.7081C125.181 12.6812 127.271 10.679 130.058 10.679V10.6827Z"
                  fill="#3C3C3B"/>
            <path d="M140.071 15.1788C140.071 15.1788 139.867 15.1376 139.689 15.1376C138.555 15.1376 137.969 15.6966 137.969 17.0053V20.5631H136.029V13.4233H137.819V14.3505C138.079 13.928 138.624 13.356 139.841 13.356C139.908 13.356 140.073 13.3691 140.073 13.3691V15.1825L140.071 15.1788Z"
                  fill="#3C3C3B"/>
            <path d="M140.371 16.9903C140.371 14.96 141.833 13.2568 144.129 13.2568C146.424 13.2568 147.884 14.96 147.884 16.9903C147.884 19.0207 146.423 20.7238 144.129 20.7238C141.835 20.7238 140.371 19.0207 140.371 16.9903ZM144.129 19.0207C145.154 19.0207 145.945 18.271 145.945 16.9903C145.945 15.7097 145.152 14.96 144.129 14.96C143.105 14.96 142.311 15.7097 142.311 16.9903C142.311 18.271 143.104 19.0207 144.129 19.0207Z"
                  fill="#3C3C3B"/>
            <path d="M151.149 23.3954H149.209V13.4195H150.999V14.2926C151.451 13.6382 152.257 13.2568 153.267 13.2568C155.343 13.2568 156.559 14.9189 156.559 16.9903C156.559 19.0618 155.343 20.7238 153.267 20.7238C152.255 20.7238 151.518 20.2882 151.149 19.7965V23.3935V23.3954ZM152.856 19.0207C153.936 19.0207 154.618 18.1476 154.618 16.9903C154.618 15.8331 153.936 14.96 152.856 14.96C151.777 14.96 151.095 15.8331 151.095 16.9903C151.095 18.1476 151.779 19.0207 152.856 19.0207Z"
                  fill="#3C3C3B"/>
            <path d="M68.8758 34.1341H67.8785V29.6921H62.2092V34.1341H61.2124V24.4592H62.2092V28.7517H67.8785V24.4592H68.8758V34.1341Z"
                  fill="#3C3C3B"/>
            <path d="M75.459 27.1982H76.4298V34.1343H75.5006V33.1266C75.268 33.5772 74.571 34.2988 73.246 34.2988C71.5256 34.2988 70.6504 33.1808 70.6504 31.6422V27.2001H71.6211V31.4384C71.6211 32.6929 72.1664 33.4556 73.4109 33.4556C74.5316 33.4556 75.459 32.7733 75.459 31.3019V27.2001V27.1982Z"
                  fill="#3C3C3B"/>
            <path d="M82.1777 27.0336C84.3217 27.0336 85.4707 28.7499 85.4707 30.6718C85.4707 32.5937 84.3235 34.2968 82.1777 34.2968C80.9203 34.2968 80.0336 33.7378 79.5409 32.8535V34.1342H78.6113V23.9133H79.5803V28.4507C80.0451 27.6207 80.9186 27.0336 82.1759 27.0336H82.1777ZM81.9999 33.4256C83.5571 33.4256 84.4867 32.1861 84.4867 30.6736C84.4867 29.1612 83.5571 27.9067 81.9999 27.9067C80.4423 27.9067 79.5542 29.1331 79.5542 30.6736C79.5542 32.2142 80.4423 33.4256 81.9999 33.4256Z"
                  fill="#3C3C3B"/>
            <path d="M87.564 31.9956C87.6467 32.8686 88.2482 33.4538 89.4365 33.4538C90.6244 33.4538 91.2674 32.9771 91.2674 32.2816C91.2674 30.2924 86.9926 31.9264 86.9926 29.079C86.9926 28.0171 87.9222 27.0356 89.5732 27.0356C91.2241 27.0356 91.991 28.0302 92.182 28.9164L91.2524 29.2305C91.1701 28.4808 90.6509 27.8807 89.5449 27.8807C88.4392 27.8807 87.9333 28.4116 87.9333 29.0379C87.9333 30.9598 92.2081 29.337 92.2081 32.2536C92.2081 33.3024 91.3201 34.297 89.4343 34.297C87.549 34.297 86.7432 33.3024 86.5933 32.1713L87.564 31.9937V31.9956Z"
                  fill="#3C3C3B"/>
        </g>
        <path d="M103.406 34L100.046 29.492L98.632 31.004V34H97.26V24.074H98.632V29.184L103.28 24.074H105.086L100.956 28.498L105.142 34H103.406ZM106.833 29.94H110.515C110.497 29.436 110.329 29.0253 110.011 28.708C109.694 28.3813 109.246 28.218 108.667 28.218C108.145 28.218 107.715 28.3907 107.379 28.736C107.043 29.072 106.861 29.4733 106.833 29.94ZM110.711 31.69L111.845 32.082C111.649 32.7073 111.285 33.2207 110.753 33.622C110.221 34.014 109.577 34.21 108.821 34.21C107.879 34.21 107.076 33.888 106.413 33.244C105.76 32.5907 105.433 31.7133 105.433 30.612C105.433 29.5853 105.751 28.736 106.385 28.064C107.02 27.392 107.776 27.056 108.653 27.056C109.671 27.056 110.464 27.378 111.033 28.022C111.603 28.6567 111.887 29.5107 111.887 30.584C111.887 30.752 111.878 30.892 111.859 31.004H106.791C106.801 31.6013 106.997 32.0913 107.379 32.474C107.771 32.8567 108.252 33.048 108.821 33.048C109.783 33.048 110.413 32.5953 110.711 31.69ZM114.883 30.108V34H113.567V27.266H114.855V28.232C115.303 27.4573 115.994 27.07 116.927 27.07C117.702 27.07 118.295 27.3173 118.705 27.812C119.125 28.3067 119.335 28.946 119.335 29.73V34H118.019V29.954C118.019 28.8247 117.497 28.26 116.451 28.26C115.957 28.26 115.569 28.4373 115.289 28.792C115.019 29.1373 114.883 29.576 114.883 30.108ZM123.109 36.814H121.667L123.347 33.258L120.449 27.266H121.961L124.061 31.914L126.077 27.266H127.491L123.109 36.814ZM128.132 32.194C128.132 31.6153 128.318 31.1533 128.692 30.808C129.065 30.4533 129.56 30.234 130.176 30.15L131.996 29.884C132.341 29.8373 132.514 29.6693 132.514 29.38C132.514 29.0253 132.392 28.736 132.15 28.512C131.907 28.288 131.543 28.176 131.058 28.176C130.61 28.176 130.255 28.302 129.994 28.554C129.732 28.7967 129.578 29.1233 129.532 29.534L128.272 29.24C128.337 28.596 128.631 28.0733 129.154 27.672C129.676 27.2613 130.302 27.056 131.03 27.056C131.982 27.056 132.686 27.2893 133.144 27.756C133.601 28.2133 133.83 28.8013 133.83 29.52V32.894C133.83 33.2953 133.858 33.664 133.914 34H132.626C132.579 33.72 132.556 33.4167 132.556 33.09C132.369 33.3887 132.094 33.65 131.73 33.874C131.375 34.098 130.927 34.21 130.386 34.21C129.723 34.21 129.182 34.014 128.762 33.622C128.342 33.2207 128.132 32.7447 128.132 32.194ZM130.568 33.104C131.156 33.104 131.627 32.9453 131.982 32.628C132.336 32.3107 132.514 31.8067 132.514 31.116V30.808L130.456 31.116C130.157 31.1627 129.919 31.27 129.742 31.438C129.564 31.606 129.476 31.8347 129.476 32.124C129.476 32.3853 129.574 32.614 129.77 32.81C129.975 33.006 130.241 33.104 130.568 33.104Z"
              fill="#10AC59"/>
    </g>
    <defs>
        <clipPath id="clip0_107_811">
            <rect width="157" height="45" fill="white"/>
        </clipPath>
    </defs>
</svg>
