<svg width="439" height="354" viewBox="0 0 439 354" fill="none" xmlns="http://www.w3.org/2000/svg">
<g clip-path="url(#clip0_112_3114)">
<path d="M425.642 312.345C436.824 301.825 442.59 286.066 436.582 272.735C427.837 286.149 413.44 296.714 396.748 301.965C390.247 304.011 382.771 305.698 379.235 310.858C377.034 314.068 376.874 318.088 377.865 321.723C378.857 325.358 380.898 328.702 382.919 332L382.931 332.932C398.754 328.909 414.46 322.865 425.642 312.345Z" fill="#6DBE93"/>
<path d="M436.247 272.806C434.361 284.415 428.192 295.576 418.759 303.99C416.712 305.894 414.388 307.477 411.868 308.687C409.273 309.835 406.445 310.357 403.612 310.211C400.943 310.126 398.224 309.771 395.578 310.251C394.28 310.479 393.041 310.966 391.936 311.684C390.831 312.401 389.882 313.334 389.146 314.426C387.391 317.005 386.809 319.977 386.355 322.901C385.852 326.147 385.388 329.526 383.25 332.319C382.99 332.657 383.61 332.986 383.869 332.648C387.59 327.79 386.345 321.58 388.856 316.341C390.027 313.896 392.055 311.743 395.085 311.004C397.736 310.359 400.54 310.723 403.241 310.829C406.01 311.005 408.785 310.586 411.378 309.6C413.96 308.507 416.349 307.005 418.452 305.151C423.056 301.219 426.991 296.564 430.102 291.371C433.554 285.681 435.886 279.384 436.973 272.819C437.038 272.418 436.311 272.407 436.247 272.806Z" fill="white"/>
<path d="M421.991 301.396C423.911 302.586 426.155 303.148 428.41 303.004C430.665 302.86 432.818 302.017 434.572 300.593C434.904 300.307 434.408 299.846 434.075 300.132C432.445 301.461 430.439 302.245 428.34 302.375C426.241 302.506 424.153 301.975 422.371 300.858C421.995 300.617 421.617 301.156 421.991 301.396Z" fill="white"/>
<path d="M404.959 310.409C404.585 308.381 404.645 306.297 405.136 304.294C405.626 302.291 406.536 300.415 407.804 298.789C408.062 298.449 407.442 298.12 407.185 298.459C405.868 300.154 404.926 302.108 404.421 304.193C403.915 306.278 403.858 308.447 404.252 310.556C404.329 310.957 405.036 310.808 404.959 310.409Z" fill="white"/>
<path d="M432.633 285.511C431.84 285.228 431.132 284.748 430.578 284.116C430.023 283.483 429.639 282.72 429.462 281.897C429.39 281.496 428.684 281.645 428.755 282.045C428.954 282.952 429.379 283.795 429.991 284.494C430.602 285.194 431.38 285.729 432.253 286.049C432.336 286.09 432.43 286.103 432.521 286.084C432.611 286.065 432.693 286.016 432.752 285.945C432.777 285.909 432.793 285.869 432.8 285.827C432.807 285.785 432.805 285.741 432.794 285.7C432.782 285.659 432.762 285.62 432.734 285.588C432.706 285.555 432.672 285.529 432.633 285.511Z" fill="white"/>
<path d="M383.558 257.578C383.594 257.83 383.631 258.082 383.663 258.337C384.134 261.722 384.287 265.144 384.121 268.557C384.113 268.821 384.1 269.088 384.083 269.351C383.557 277.656 381.292 285.758 377.435 293.133C375.866 296.144 374.054 299.022 372.018 301.739C369.18 305.53 365.755 309.444 364.561 313.702C364.431 314.144 364.332 314.594 364.266 315.049L381.62 332.872C381.683 332.896 381.741 332.923 381.804 332.946L382.459 333.685C382.577 333.55 382.695 333.408 382.812 333.273C382.881 333.194 382.945 333.112 383.014 333.034C383.058 332.981 383.103 332.927 383.146 332.881C383.161 332.864 383.176 332.846 383.186 332.831C383.229 332.785 383.264 332.739 383.303 332.696C383.967 331.902 384.626 331.102 385.28 330.297C385.285 330.294 385.285 330.294 385.286 330.286C390.248 324.141 394.663 317.582 397.792 310.65C397.886 310.441 397.984 310.229 398.071 310.012C399.453 306.905 400.546 303.677 401.338 300.37C401.761 298.574 402.079 296.755 402.291 294.922C402.826 290.192 402.501 285.404 401.331 280.789C398.995 271.544 393.278 263.05 384.252 257.96C384.021 257.83 383.793 257.704 383.558 257.578Z" fill="#6DBE93"/>
<path d="M383.336 257.809C389.881 268.064 392.696 280.2 390.999 291.849C390.692 294.413 389.932 296.903 388.753 299.201C387.442 301.511 385.529 303.422 383.219 304.734C381.029 306.061 378.612 307.199 376.831 308.965C375.956 309.825 375.296 310.88 374.907 312.044C374.518 313.208 374.409 314.447 374.591 315.661C374.979 318.637 376.575 321.314 378.24 323.886C380.089 326.741 382.062 329.681 382.291 333.029C382.319 333.435 383.042 333.374 383.014 332.969C382.616 327.144 377.316 322.837 375.687 317.341C374.927 314.777 375.053 311.998 376.961 309.824C378.629 307.923 381.121 306.748 383.351 305.421C385.632 304.163 387.57 302.365 388.995 300.186C390.303 297.954 391.173 295.494 391.558 292.936C392.506 287.27 392.42 281.48 391.304 275.844C390.035 269.297 387.531 263.051 383.926 257.44C383.699 257.085 383.111 257.457 383.336 257.809Z" fill="white"/>
<path d="M391.781 288.088C396.534 288.045 400.589 284.949 401.269 280.871C401.336 280.469 400.62 280.36 400.553 280.762C399.916 284.583 396.154 287.42 391.711 287.46C391.243 287.464 391.316 288.092 391.781 288.088Z" fill="white"/>
<path d="M384.431 304.188C382.787 302.879 381.426 301.249 380.432 299.399C379.437 297.548 378.829 295.515 378.645 293.422C378.615 293.016 377.892 293.077 377.921 293.482C378.118 295.66 378.756 297.775 379.795 299.699C380.835 301.623 382.255 303.316 383.969 304.675C384.309 304.954 384.769 304.466 384.431 304.188Z" fill="white"/>
<path d="M389.261 269.842C388.383 270.02 387.476 270.003 386.605 269.79C385.735 269.578 384.921 269.177 384.224 268.615C383.888 268.331 383.428 268.82 383.761 269.101C384.535 269.719 385.434 270.162 386.395 270.398C387.357 270.635 388.359 270.659 389.331 270.47C389.524 270.433 389.676 270.311 389.658 270.126C389.64 270.037 389.59 269.958 389.516 269.905C389.442 269.853 389.351 269.83 389.261 269.842Z" fill="white"/>
<path d="M357.247 122.543C365.464 122.543 372.125 115.886 372.125 107.675C372.125 99.463 365.464 92.8062 357.247 92.8062C349.03 92.8062 342.369 99.463 342.369 107.675C342.369 115.886 349.03 122.543 357.247 122.543Z" fill="#A0616A"/>
<path d="M422.441 176.366C420.35 171.515 417.479 167.038 413.941 163.114C416.937 167.885 418.649 173.349 418.912 178.976C417.827 179.653 416.692 180.247 415.517 180.751C411.985 182.231 408.22 183.077 404.394 183.248C402.332 176.382 398.772 170.059 393.972 164.732C397.432 170.245 399.171 176.663 398.97 183.167C394.702 182.798 390.498 181.898 386.454 180.487C380.382 178.399 374.489 175.282 370.29 170.433C365.746 165.185 363.506 158.26 362.783 151.356C362.059 144.458 362.739 137.494 363.425 130.591C363.749 127.301 361.007 123.514 361.331 120.224H361.547C362.988 118.25 364.456 116.228 365.163 113.887C365.864 111.551 365.681 108.795 364.067 106.956C363.163 105.995 362.022 105.288 360.759 104.906C360.64 104.755 360.51 104.61 360.376 104.464C357.932 101.87 355.056 99.7203 351.875 98.1105C354.169 99.8419 355.702 101.8 356.414 103.822C354.428 103.385 352.442 102.95 350.456 102.517C349.792 101.813 349.093 101.144 348.362 100.511C347.515 99.825 346.618 99.203 345.679 98.6499C346.703 99.5501 347.497 100.682 347.995 101.951C345.442 101.309 342.889 100.343 341.561 98.1483C339.36 94.5184 341.977 89.621 345.631 87.4528C348.289 85.9524 351.351 85.3247 354.386 85.6586C357.42 85.9925 360.272 87.2711 362.54 89.3136C367.823 85.4248 375.347 85.4896 381.224 88.3967C385.104 90.4018 388.447 93.3075 390.971 96.87C389.507 96.6822 388.033 96.5795 386.557 96.5626C388.635 96.8665 390.614 97.6494 392.337 98.8494C393.099 100.032 393.798 101.255 394.431 102.512C394.846 103.337 395.239 104.173 395.607 105.02C397.869 110.165 399.342 115.645 400.869 121.06C402.65 127.371 404.561 133.724 407.896 139.371C413.01 147.958 421.078 154.391 430.591 157.467C431.384 164.602 427.898 171.582 422.441 176.366Z" fill="#2F2E41"/>
<path d="M387.916 337.462L382.516 339.975L370.248 320.353L378.219 316.645L387.916 337.462Z" fill="#A0616A"/>
<path d="M395.122 345.487L391.249 347.289L388.856 343.956L388.788 348.434L378.516 353.213C378.023 353.442 377.47 353.508 376.938 353.401C376.406 353.294 375.921 353.019 375.556 352.618C375.191 352.216 374.963 351.708 374.907 351.169C374.851 350.629 374.969 350.085 375.244 349.617L380.81 340.139L379.089 336.445L387.956 332.946L395.122 345.487Z" fill="#2F2E41"/>
<path d="M333.701 343.136H327.743L324.908 320.174H333.701V343.136Z" fill="#A0616A"/>
<path d="M336.845 353.451H332.573L331.81 349.42L329.857 353.451H318.527C317.984 353.451 317.455 353.277 317.017 352.956C316.58 352.634 316.257 352.181 316.095 351.663C315.933 351.145 315.942 350.589 316.119 350.075C316.296 349.562 316.632 349.119 317.079 348.811L326.127 342.566V338.491L335.645 339.059L336.845 353.451Z" fill="#2F2E41"/>
<path d="M361.215 169.145L356.28 184.194L354.648 196.394L328.431 188.305L330.856 161.082L336.309 155.691L361.215 169.145Z" fill="#A0616A"/>
<path d="M202.185 184.677H22.3318C16.4111 184.671 10.7348 182.317 6.54825 178.133C2.36169 173.949 0.0067237 168.277 0 162.36V85.1001C0.00668521 79.1832 2.36164 73.5106 6.54821 69.3267C10.7348 65.1428 16.4111 62.7893 22.3318 62.7827C79.7216 46.8933 139.912 48.3819 202.185 62.7827C208.105 62.7893 213.782 65.1428 217.968 69.3267C222.155 73.5106 224.51 79.1832 224.516 85.1001V162.36C224.51 168.277 222.155 173.949 217.968 178.133C213.782 182.317 208.105 184.671 202.185 184.677Z" fill="#F2F2F2"/>
<path d="M19.1593 164.991C19.0885 164.991 19.0183 164.977 18.9528 164.95C18.8873 164.923 18.8278 164.883 18.7777 164.833C18.7275 164.783 18.6878 164.723 18.6607 164.658C18.6336 164.592 18.6196 164.522 18.6196 164.451V83.0085C18.6196 82.8655 18.6765 82.7283 18.7777 82.6271C18.8789 82.526 19.0162 82.4692 19.1593 82.4692C19.3025 82.4692 19.4397 82.526 19.541 82.6271C19.6422 82.7283 19.699 82.8655 19.699 83.0085V164.451C19.6991 164.522 19.6851 164.592 19.658 164.658C19.6309 164.723 19.5911 164.783 19.541 164.833C19.4909 164.883 19.4314 164.923 19.3659 164.95C19.3004 164.977 19.2302 164.991 19.1593 164.991Z" fill="white"/>
<path d="M206.436 164.991C206.507 164.991 206.577 164.977 206.643 164.95C206.708 164.923 206.768 164.883 206.818 164.833C206.868 164.783 206.908 164.723 206.935 164.658C206.962 164.592 206.976 164.522 206.976 164.451V83.0085C206.976 82.8655 206.919 82.7283 206.818 82.6271C206.717 82.526 206.579 82.4692 206.436 82.4692C206.293 82.4692 206.156 82.526 206.055 82.6271C205.953 82.7283 205.896 82.8655 205.896 83.0085V164.451C205.896 164.522 205.91 164.592 205.938 164.658C205.965 164.723 206.004 164.783 206.055 164.833C206.105 164.883 206.164 164.923 206.23 164.95C206.295 164.977 206.365 164.991 206.436 164.991Z" fill="white"/>
<path d="M170.816 100.268H170.814C170.671 100.267 170.534 100.21 170.433 100.109C170.332 100.007 170.276 99.8698 170.276 99.7268L170.546 17.2051C170.547 17.0624 170.604 16.9257 170.705 16.825C170.806 16.7242 170.943 16.6676 171.086 16.6676H171.088C171.231 16.6681 171.368 16.7254 171.469 16.8269C171.57 16.9284 171.626 17.0658 171.626 17.2088L171.356 99.7305C171.355 99.8732 171.298 100.01 171.197 100.111C171.096 100.211 170.959 100.268 170.816 100.268Z" fill="#3F3D56"/>
<path d="M101.734 218.387H101.732C101.589 218.387 101.452 218.329 101.351 218.228C101.25 218.127 101.194 217.989 101.194 217.846L101.464 137.482C101.465 137.339 101.522 137.202 101.623 137.102C101.724 137.001 101.861 136.944 102.004 136.944H102.006C102.149 136.945 102.286 137.002 102.387 137.104C102.488 137.205 102.544 137.342 102.544 137.485L102.274 217.849C102.273 217.992 102.216 218.129 102.115 218.23C102.014 218.331 101.877 218.387 101.734 218.387Z" fill="#3F3D56"/>
<path d="M50.4621 115.37H50.4602C50.3171 115.369 50.18 115.312 50.0791 115.211C49.9783 115.109 49.9219 114.972 49.9224 114.829L50.1922 33.3858C50.1927 33.2431 50.2498 33.1064 50.351 33.0057C50.4521 32.9049 50.5891 32.8484 50.7319 32.8483H50.7338C50.8769 32.8488 51.014 32.9061 51.1148 33.0076C51.2157 33.1091 51.2721 33.2465 51.2716 33.3895L51.0018 114.832C51.0012 114.975 50.9442 115.112 50.843 115.213C50.7419 115.313 50.6049 115.37 50.4621 115.37Z" fill="#3F3D56"/>
<path d="M28.1772 137.052C29.2166 131.444 35.5964 128.858 40.7658 129.297C48.1534 129.925 54.3189 134.786 61.1946 137.077C64.5172 138.184 68.092 138.792 71.5738 138.155C74.3186 137.59 76.8637 136.306 78.9484 134.434C82.9461 131.02 85.6488 126.363 89.6496 122.952C91.7892 121.027 94.4953 119.846 97.3626 119.586C100.893 119.352 104.35 120.547 107.444 122.15C113.591 125.333 118.623 130.399 125.17 132.856C128.176 134.014 131.437 134.35 134.616 133.831C137.79 133.199 140.807 131.947 143.496 130.148C149.133 126.589 153.779 121.65 159.706 118.529C162.621 116.994 165.859 115.82 169.188 115.797C172.406 115.801 175.499 117.039 177.831 119.255C182.32 123.333 185.859 129.77 192.715 129.883C194.145 129.91 195.552 129.524 196.768 128.772C197.652 128.225 196.84 126.825 195.951 127.374C193.156 129.102 189.79 128.012 187.243 126.337C184.531 124.553 182.605 121.826 180.391 119.504C178.192 117.196 175.626 115.252 172.462 114.532C169.301 113.908 166.028 114.181 163.015 115.321C156.538 117.576 151.636 122.218 146.261 126.256C140.963 130.236 134.779 133.68 127.944 132.022C121.139 130.372 115.976 125.222 110.09 121.765C104.401 118.423 97.4264 116.289 91.2996 119.805C86.6701 122.462 83.7431 127.154 80.1875 130.977C78.4331 132.863 76.4765 134.616 74.1065 135.687C70.8134 137.176 67.0917 137.003 63.6616 136.12C56.5063 134.279 50.4712 129.465 43.1851 128.024C37.777 126.955 31.3758 128.302 28.0749 133.08C27.345 134.145 26.8479 135.352 26.6159 136.622C26.4272 137.64 27.9873 138.076 28.1772 137.052Z" fill="#3F3D56"/>
<path d="M50.732 140.585C54.6069 140.585 57.7481 137.446 57.7481 133.573C57.7481 129.701 54.6069 126.562 50.732 126.562C46.8571 126.562 43.7158 129.701 43.7158 133.573C43.7158 137.446 46.8571 140.585 50.732 140.585Z" fill="#6DBE93"/>
<path d="M101.194 125.753C105.069 125.753 108.21 122.613 108.21 118.741C108.21 114.869 105.069 111.729 101.194 111.729C97.3195 111.729 94.1782 114.869 94.1782 118.741C94.1782 122.613 97.3195 125.753 101.194 125.753Z" fill="#D26949"/>
<path d="M170.276 120.898C174.151 120.898 177.293 117.759 177.293 113.887C177.293 110.014 174.151 106.875 170.276 106.875C166.401 106.875 163.26 110.014 163.26 113.887C163.26 117.759 166.401 120.898 170.276 120.898Z" fill="#CBAE78"/>
<path d="M110.092 238.928H94.7027C93.8563 238.927 93.0384 238.621 92.3995 238.066C91.7605 237.511 91.3433 236.745 91.2244 235.907C90.2741 228.919 90.2741 221.835 91.2244 214.847C91.3415 214.021 91.7487 213.264 92.3732 212.711C92.9978 212.157 93.7989 211.844 94.6334 211.827C99.6446 209.138 104.867 209.137 110.158 211.827C110.663 211.835 111.16 211.954 111.615 212.174C112.069 212.394 112.47 212.71 112.789 213.101C113.124 213.509 113.363 213.987 113.49 214.499C113.617 215.011 113.628 215.545 113.523 216.062C112.287 222.211 112.287 228.543 113.523 234.692C113.628 235.209 113.617 235.743 113.49 236.255C113.363 236.767 113.124 237.245 112.789 237.653C112.463 238.052 112.051 238.374 111.585 238.594C111.118 238.815 110.608 238.929 110.092 238.928Z" fill="#D26949"/>
<path d="M180.793 28.727H165.403C164.557 28.7264 163.739 28.4206 163.1 27.8658C162.461 27.311 162.044 26.5444 161.925 25.7068C160.975 18.7188 160.975 11.6344 161.925 4.64636C162.043 3.81888 162.451 3.06034 163.078 2.50691C163.705 1.95347 164.508 1.6414 165.344 1.6267C170.186 -0.542321 175.401 -0.542056 180.846 1.62644C181.353 1.63316 181.852 1.75073 182.309 1.97088C182.766 2.19104 183.169 2.50845 183.49 2.90082C183.825 3.30901 184.064 3.78659 184.191 4.29885C184.318 4.81111 184.329 5.3452 184.224 5.86229C182.988 12.0104 182.988 18.3428 184.224 24.4909C184.329 25.008 184.318 25.5421 184.191 26.0544C184.064 26.5666 183.825 27.0442 183.49 27.4524C183.163 27.8517 182.752 28.1733 182.285 28.3938C181.819 28.6143 181.309 28.7281 180.793 28.727Z" fill="#CBAE78"/>
<path d="M58.1312 42.7337H42.7417C42.2257 42.7348 41.7158 42.621 41.2493 42.4005C40.7827 42.18 40.3712 41.8584 40.0446 41.4591C39.7099 41.0509 39.4704 40.5733 39.3435 40.0611C39.2166 39.5488 39.2054 39.0147 39.3109 38.4976C40.5471 32.3495 40.5471 26.0171 39.3109 19.869C39.2054 19.3519 39.2165 18.8177 39.3434 18.3054C39.4703 17.7931 39.7099 17.3155 40.0446 16.9073C40.3644 16.5163 40.7656 16.1998 41.2204 15.9798C41.6752 15.7598 42.1725 15.6416 42.6777 15.6334C47.3564 13.3435 52.5732 13.3435 58.1852 15.6334C59.0223 15.6468 59.8271 15.9583 60.4548 16.5119C61.0824 17.0654 61.4918 17.8247 61.6092 18.6531C62.5595 25.641 62.5595 32.7253 61.6092 39.7133C61.4905 40.5509 61.0734 41.3175 60.4344 41.8724C59.7955 42.4273 58.9777 42.7331 58.1312 42.7337Z" fill="#CCCCCC"/>
<path d="M179.181 9.65594H166.228C166.014 9.65594 165.808 9.5707 165.656 9.41898C165.504 9.26726 165.419 9.06148 165.419 8.84691C165.419 8.63234 165.504 8.42655 165.656 8.27483C165.808 8.12311 166.014 8.03787 166.228 8.03787H179.181C179.396 8.03787 179.602 8.12311 179.754 8.27483C179.906 8.42655 179.991 8.63234 179.991 8.84691C179.991 9.06148 179.906 9.26726 179.754 9.41898C179.602 9.5707 179.396 9.65594 179.181 9.65594Z" fill="white"/>
<path d="M179.181 16.1282H166.228C166.014 16.1282 165.808 16.043 165.656 15.8913C165.504 15.7395 165.419 15.5338 165.419 15.3192C165.419 15.1046 165.504 14.8988 165.656 14.7471C165.808 14.5954 166.014 14.5102 166.228 14.5102H179.181C179.396 14.5102 179.602 14.5954 179.754 14.7471C179.906 14.8988 179.991 15.1046 179.991 15.3192C179.991 15.5338 179.906 15.7395 179.754 15.8913C179.602 16.043 179.396 16.1282 179.181 16.1282Z" fill="white"/>
<path d="M179.181 22.6005H166.228C166.014 22.6005 165.808 22.5153 165.656 22.3636C165.504 22.2118 165.419 22.0061 165.419 21.7915C165.419 21.5769 165.504 21.3711 165.656 21.2194C165.808 21.0677 166.014 20.9825 166.228 20.9825H179.181C179.396 20.9825 179.602 21.0677 179.754 21.2194C179.906 21.3711 179.991 21.5769 179.991 21.7915C179.991 22.0061 179.906 22.2118 179.754 22.3636C179.602 22.5153 179.396 22.6005 179.181 22.6005Z" fill="white"/>
<path d="M58.3664 22.6005H45.4136C45.1989 22.6005 44.9929 22.5153 44.8411 22.3636C44.6893 22.2118 44.604 22.0061 44.604 21.7915C44.604 21.5769 44.6893 21.3711 44.8411 21.2194C44.9929 21.0677 45.1989 20.9825 45.4136 20.9825H58.3664C58.5811 20.9825 58.7871 21.0677 58.9389 21.2194C59.0907 21.3711 59.176 21.5769 59.176 21.7915C59.176 22.0061 59.0907 22.2118 58.9389 22.3636C58.7871 22.5153 58.5811 22.6005 58.3664 22.6005Z" fill="white"/>
<path d="M58.3664 29.0728H45.4136C45.1989 29.0728 44.9929 28.9876 44.8411 28.8358C44.6893 28.6841 44.604 28.4783 44.604 28.2638C44.604 28.0492 44.6893 27.8434 44.8411 27.6917C44.9929 27.54 45.1989 27.4547 45.4136 27.4547H58.3664C58.5811 27.4547 58.7871 27.54 58.9389 27.6917C59.0907 27.8434 59.176 28.0492 59.176 28.2638C59.176 28.4783 59.0907 28.6841 58.9389 28.8358C58.7871 28.9876 58.5811 29.0728 58.3664 29.0728Z" fill="white"/>
<path d="M58.3664 35.5451H45.4136C45.1989 35.5451 44.9929 35.4599 44.8411 35.3081C44.6893 35.1564 44.604 34.9506 44.604 34.7361C44.604 34.5215 44.6893 34.3157 44.8411 34.164C44.9929 34.0123 45.1989 33.927 45.4136 33.927H58.3664C58.5811 33.927 58.7871 34.0123 58.9389 34.164C59.0907 34.3157 59.176 34.5215 59.176 34.7361C59.176 34.9506 59.0907 35.1564 58.9389 35.3081C58.7871 35.4599 58.5811 35.5451 58.3664 35.5451Z" fill="white"/>
<path d="M109.098 218.387H96.1455C95.9308 218.387 95.7249 218.302 95.5731 218.15C95.4212 217.999 95.3359 217.793 95.3359 217.578C95.3359 217.364 95.4212 217.158 95.5731 217.006C95.7249 216.854 95.9308 216.769 96.1455 216.769H109.098C109.313 216.769 109.519 216.854 109.671 217.006C109.823 217.158 109.908 217.364 109.908 217.578C109.908 217.793 109.823 217.999 109.671 218.15C109.519 218.302 109.313 218.387 109.098 218.387Z" fill="white"/>
<path d="M109.098 224.859H96.1455C95.9308 224.859 95.7249 224.774 95.5731 224.623C95.4212 224.471 95.3359 224.265 95.3359 224.05C95.3359 223.836 95.4212 223.63 95.5731 223.478C95.7249 223.327 95.9308 223.241 96.1455 223.241H109.098C109.313 223.241 109.519 223.327 109.671 223.478C109.823 223.63 109.908 223.836 109.908 224.05C109.908 224.265 109.823 224.471 109.671 224.623C109.519 224.774 109.313 224.859 109.098 224.859Z" fill="white"/>
<path d="M109.098 231.332H96.1455C95.9308 231.332 95.7249 231.247 95.5731 231.095C95.4212 230.943 95.3359 230.737 95.3359 230.523C95.3359 230.308 95.4212 230.102 95.5731 229.951C95.7249 229.799 95.9308 229.714 96.1455 229.714H109.098C109.313 229.714 109.519 229.799 109.671 229.951C109.823 230.102 109.908 230.308 109.908 230.523C109.908 230.737 109.823 230.943 109.671 231.095C109.519 231.247 109.313 231.332 109.098 231.332Z" fill="white"/>
<path d="M363.771 193.959L327.73 185.812L314.377 216.769L310.599 279.874L320.443 331.113H340.168L331.108 279.874L333.267 241.04L343.381 287.676L370.181 326.368L382.546 315.694L361.331 279.335C361.331 279.335 370.213 214.06 360.791 202.746L363.771 193.959Z" fill="#2C393F"/>
<path d="M342.265 132.486L345.152 131.402L348.793 125.519L361.763 126.578L364.916 132.887L372.51 138.683L369.189 156.163L364.029 177.396L329.488 173.081L329.525 157.097C329.525 157.097 323.283 144.469 333.366 139.737L342.265 132.486Z" fill="#E6E6E6"/>
<path d="M289.023 187.93C289.694 188.199 290.415 188.318 291.137 188.278C291.858 188.239 292.562 188.041 293.199 187.7C293.836 187.359 294.39 186.883 294.823 186.304C295.255 185.726 295.556 185.06 295.703 184.353L334.216 161.064L327.177 152.947L291.533 178.392C290.328 178.224 289.104 178.503 288.091 179.176C287.078 179.85 286.348 180.871 286.039 182.047C285.73 183.223 285.862 184.471 286.412 185.555C286.963 186.64 287.891 187.485 289.023 187.93Z" fill="#A0616A"/>
<path d="M347.049 150.02C347.049 150.02 348.89 151.871 344.271 154.914C340.574 157.35 324.083 169.389 318.237 171.294C318.31 172.152 318.096 173.01 317.627 173.733C317.158 174.455 316.463 175.002 315.649 175.286L310.356 163.662C311.502 161.004 313.334 161.62 314.299 162.222L320.691 157.418L336.389 141.752L345.742 148.659L347.049 150.02Z" fill="#E6E6E6"/>
<path d="M288.026 189.815H272.636C272.12 189.816 271.61 189.702 271.144 189.482C270.677 189.261 270.266 188.939 269.939 188.54C269.604 188.132 269.365 187.654 269.238 187.142C269.111 186.63 269.1 186.096 269.205 185.579C270.442 179.431 270.442 173.098 269.205 166.95C269.1 166.433 269.111 165.899 269.238 165.387C269.365 164.874 269.604 164.397 269.939 163.988C270.259 163.597 270.66 163.281 271.115 163.061C271.57 162.841 272.067 162.723 272.572 162.714C277.251 160.425 282.468 160.425 288.08 162.714C288.917 162.728 289.722 163.039 290.349 163.593C290.977 164.147 291.386 164.906 291.504 165.734C292.454 172.722 292.454 179.806 291.504 186.794C291.385 187.632 290.968 188.399 290.329 188.953C289.69 189.508 288.872 189.814 288.026 189.815Z" fill="#6DBE93"/>
<path d="M288.261 169.682H275.309C275.094 169.682 274.888 169.596 274.736 169.445C274.584 169.293 274.499 169.087 274.499 168.873C274.499 168.658 274.584 168.452 274.736 168.301C274.888 168.149 275.094 168.064 275.309 168.064H288.261C288.476 168.064 288.682 168.149 288.834 168.301C288.986 168.452 289.071 168.658 289.071 168.873C289.071 169.087 288.986 169.293 288.834 169.445C288.682 169.596 288.476 169.682 288.261 169.682Z" fill="white"/>
<path d="M288.261 176.154H275.309C275.094 176.154 274.888 176.069 274.736 175.917C274.584 175.765 274.499 175.559 274.499 175.345C274.499 175.13 274.584 174.925 274.736 174.773C274.888 174.621 275.094 174.536 275.309 174.536H288.261C288.476 174.536 288.682 174.621 288.834 174.773C288.986 174.925 289.071 175.13 289.071 175.345C289.071 175.559 288.986 175.765 288.834 175.917C288.682 176.069 288.476 176.154 288.261 176.154Z" fill="white"/>
<path d="M288.261 182.626H275.309C275.094 182.626 274.888 182.541 274.736 182.389C274.584 182.238 274.499 182.032 274.499 181.817C274.499 181.603 274.584 181.397 274.736 181.245C274.888 181.093 275.094 181.008 275.309 181.008H288.261C288.476 181.008 288.682 181.093 288.834 181.245C288.986 181.397 289.071 181.603 289.071 181.817C289.071 182.032 288.986 182.238 288.834 182.389C288.682 182.541 288.476 182.626 288.261 182.626Z" fill="white"/>
<path d="M362.505 236.2H347.115C346.599 236.201 346.089 236.087 345.623 235.866C345.156 235.646 344.745 235.324 344.418 234.925C344.083 234.517 343.844 234.039 343.717 233.527C343.59 233.015 343.579 232.481 343.684 231.963C344.921 225.815 344.921 219.483 343.684 213.335C343.579 212.818 343.59 212.284 343.717 211.771C343.844 211.259 344.083 210.781 344.418 210.373C344.738 209.982 345.139 209.666 345.594 209.446C346.049 209.226 346.546 209.107 347.051 209.099C351.73 206.809 356.947 206.809 362.559 209.099C363.396 209.113 364.201 209.424 364.828 209.978C365.456 210.531 365.865 211.291 365.983 212.119C366.933 219.107 366.933 226.191 365.983 233.179C365.864 234.017 365.447 234.783 364.808 235.338C364.169 235.893 363.351 236.199 362.505 236.2Z" fill="#CCCCCC"/>
<path d="M362.74 216.066H349.787C349.572 216.066 349.366 215.981 349.215 215.829C349.063 215.678 348.978 215.472 348.978 215.257C348.978 215.043 349.063 214.837 349.215 214.685C349.366 214.534 349.572 214.448 349.787 214.448H362.74C362.955 214.448 363.161 214.534 363.312 214.685C363.464 214.837 363.55 215.043 363.55 215.257C363.55 215.472 363.464 215.678 363.312 215.829C363.161 215.981 362.955 216.066 362.74 216.066Z" fill="white"/>
<path d="M362.74 222.539H349.787C349.572 222.539 349.366 222.453 349.215 222.302C349.063 222.15 348.978 221.944 348.978 221.73C348.978 221.515 349.063 221.309 349.215 221.158C349.366 221.006 349.572 220.921 349.787 220.921H362.74C362.955 220.921 363.161 221.006 363.312 221.158C363.464 221.309 363.55 221.515 363.55 221.73C363.55 221.944 363.464 222.15 363.312 222.302C363.161 222.453 362.955 222.539 362.74 222.539Z" fill="white"/>
<path d="M362.74 229.011H349.787C349.572 229.011 349.366 228.926 349.215 228.774C349.063 228.622 348.978 228.416 348.978 228.202C348.978 227.987 349.063 227.782 349.215 227.63C349.366 227.478 349.572 227.393 349.787 227.393H362.74C362.955 227.393 363.161 227.478 363.312 227.63C363.464 227.782 363.55 227.987 363.55 228.202C363.55 228.416 363.464 228.622 363.312 228.774C363.161 228.926 362.955 229.011 362.74 229.011Z" fill="white"/>
<path d="M355.672 213.04C356.346 212.779 356.953 212.373 357.453 211.851C357.952 211.329 358.331 210.704 358.563 210.02C358.794 209.336 358.873 208.61 358.793 207.892C358.714 207.174 358.478 206.483 358.102 205.866L370.285 162.56L359.596 161.443L350.981 204.363C349.986 205.063 349.283 206.104 349.004 207.287C348.726 208.471 348.892 209.715 349.47 210.784C350.048 211.854 350.999 212.674 352.142 213.09C353.285 213.506 354.541 213.488 355.672 213.04Z" fill="#A0616A"/>
<path d="M372.088 138.787C372.088 138.787 374.697 138.88 373.408 144.256C372.375 148.56 368.583 175.558 365.618 180.941C366.259 181.518 366.689 182.291 366.841 183.138C366.994 183.986 366.859 184.86 366.46 185.623L354.646 180.754C353.665 178.031 354.425 175.56 355.54 175.341L356.921 167.467L358.955 141.053L370.203 138.686L372.088 138.787Z" fill="#E6E6E6"/>
<path d="M362.446 89.7181C364.234 92.3553 365.389 95.3692 365.822 98.5254C366.254 101.682 365.952 104.895 364.939 107.915" fill="#FD6584"/>
<path d="M425.46 353.358C425.46 353.443 425.444 353.526 425.412 353.604C425.38 353.682 425.332 353.753 425.273 353.813C425.213 353.872 425.142 353.919 425.064 353.952C424.986 353.984 424.902 354 424.818 354H273.545C273.46 354 273.377 353.983 273.299 353.951C273.221 353.919 273.15 353.872 273.09 353.812C273.031 353.752 272.984 353.682 272.951 353.604C272.919 353.526 272.902 353.442 272.902 353.358C272.902 353.274 272.919 353.19 272.951 353.113C272.984 353.035 273.031 352.964 273.09 352.904C273.15 352.845 273.221 352.797 273.299 352.765C273.377 352.733 273.46 352.716 273.545 352.716H424.818C424.902 352.716 424.986 352.733 425.064 352.765C425.142 352.797 425.213 352.844 425.273 352.904C425.332 352.963 425.38 353.034 425.412 353.112C425.444 353.19 425.46 353.274 425.46 353.358Z" fill="#CCCCCC"/>
</g>
<defs>
<clipPath id="clip0_112_3114">
<rect width="439" height="354" fill="white"/>
</clipPath>
</defs>
</svg>
