<svg width="137" height="127" viewBox="0 0 137 127" fill="none" xmlns="http://www.w3.org/2000/svg">
<path d="M78.0736 0.294698L73.113 1.57291L11.9973 17.3208L7.03668 18.599C4.62886 19.2223 2.56681 20.7745 1.30293 22.9151C0.0390409 25.0556 -0.323464 27.6097 0.29494 30.017L21.8052 113.362C22.429 115.768 23.9825 117.828 26.1248 119.091C28.267 120.354 30.8232 120.716 33.2324 120.099L33.2452 120.095L104.256 101.798L104.269 101.794C106.677 101.171 108.739 99.6187 110.003 97.4781C111.267 95.3376 111.629 92.7835 111.011 90.3762L89.5007 7.03108C88.8769 4.62518 87.3235 2.56478 85.1812 1.3019C83.0389 0.0390168 80.4828 -0.323206 78.0736 0.294698Z" fill="#F2F2F2"/>
<path d="M78.7482 2.90784L72.8727 4.4218L13.5866 19.6982L7.71121 21.2122C5.99654 21.656 4.5281 22.7614 3.62805 24.2857C2.728 25.8101 2.46985 27.6289 2.91023 29.3432L24.4205 112.688C24.8647 114.402 25.971 115.869 27.4966 116.768C29.0221 117.668 30.8424 117.925 32.5581 117.485L32.5709 117.482L103.582 99.1844L103.595 99.1811C105.31 98.7372 106.778 97.6319 107.678 96.1075C108.578 94.5832 108.836 92.7644 108.396 91.0501L86.8856 7.70498C86.4414 5.9917 85.3352 4.52445 83.8096 3.62512C82.2841 2.7258 80.4638 2.46784 78.7482 2.90784Z" fill="white"/>
<path d="M74.3118 29.897L38.3889 39.1534C37.9877 39.2568 37.5618 39.1966 37.205 38.9863C36.8481 38.7759 36.5895 38.4325 36.486 38.0316C36.3826 37.6307 36.4427 37.2051 36.6533 36.8486C36.8638 36.492 37.2075 36.2336 37.6087 36.1302L73.5316 26.8738C73.9326 26.7709 74.3582 26.8312 74.7148 27.0416C75.0714 27.252 75.3298 27.5953 75.4332 27.996C75.5366 28.3966 75.4765 28.8219 75.2663 29.1784C75.056 29.5349 74.7127 29.7933 74.3118 29.897Z" fill="#F2F2F2"/>
<path d="M81.8686 33.3908L39.7054 44.2551C39.3041 44.3585 38.8782 44.2984 38.5214 44.088C38.1645 43.8776 37.9059 43.5342 37.8024 43.1333C37.699 42.7324 37.7591 42.3069 37.9697 41.9503C38.1802 41.5937 38.5239 41.3353 38.9251 41.2319L81.0883 30.3676C81.4895 30.2642 81.9154 30.3243 82.2723 30.5347C82.6292 30.745 82.8878 31.0885 82.9913 31.4894C83.0947 31.8903 83.0346 32.3158 82.824 32.6724C82.6135 33.029 82.2698 33.2874 81.8686 33.3908Z" fill="#F2F2F2"/>
<path d="M80.2122 52.7599L44.2893 62.0163C44.0907 62.0675 43.8839 62.079 43.6807 62.0504C43.4776 62.0217 43.2821 61.9533 43.1054 61.8492C42.9287 61.745 42.7742 61.6071 42.6509 61.4433C42.5275 61.2795 42.4376 61.093 42.3864 60.8945C42.3352 60.696 42.3236 60.4893 42.3523 60.2863C42.381 60.0834 42.4494 59.888 42.5536 59.7114C42.6579 59.5349 42.7959 59.3806 42.9599 59.2573C43.1238 59.134 43.3104 59.0443 43.5091 58.9931L79.432 49.7367C79.6306 49.6855 79.8374 49.6739 80.0406 49.7026C80.2437 49.7313 80.4392 49.7996 80.6159 49.9038C80.7926 50.008 80.9471 50.1459 81.0704 50.3097C81.1938 50.4735 81.2837 50.66 81.3349 50.8585C81.3861 51.057 81.3977 51.2636 81.369 51.4666C81.3403 51.6696 81.2719 51.865 81.1677 52.0415C81.0634 52.2181 80.9254 52.3724 80.7614 52.4957C80.5975 52.6189 80.4109 52.7087 80.2122 52.7599Z" fill="#F2F2F2"/>
<path d="M87.7689 56.2536L45.6057 67.1179C45.4071 67.1691 45.2003 67.1807 44.9971 67.152C44.794 67.1233 44.5985 67.055 44.4218 66.9508C44.2451 66.8466 44.0906 66.7087 43.9673 66.5449C43.8439 66.3811 43.754 66.1946 43.7028 65.9961C43.6516 65.7976 43.64 65.5909 43.6687 65.388C43.6974 65.185 43.7658 64.9896 43.87 64.8131C43.9743 64.6365 44.1123 64.4822 44.2763 64.3589C44.4402 64.2357 44.6268 64.1459 44.8255 64.0947L86.9887 53.2304C87.3899 53.127 87.8158 53.1871 88.1727 53.3975C88.5296 53.6078 88.7882 53.9513 88.8916 54.3522C88.9951 54.7531 88.9349 55.1786 88.7244 55.5352C88.5139 55.8918 88.1702 56.1502 87.7689 56.2536Z" fill="#F2F2F2"/>
<path d="M86.113 75.6229L50.1902 84.8793C49.789 84.9824 49.3634 84.9221 49.0068 84.7117C48.6501 84.5013 48.3917 84.158 48.2883 83.7573C48.1848 83.3565 48.2449 82.9312 48.4552 82.5747C48.6656 82.2182 49.0089 81.9597 49.4099 81.8561L85.3328 72.5998C85.734 72.4964 86.1599 72.5565 86.5167 72.7668C86.8736 72.9772 87.1322 73.3206 87.2357 73.7215C87.3392 74.1224 87.279 74.548 87.0685 74.9046C86.8579 75.2611 86.5142 75.5196 86.113 75.6229Z" fill="#F2F2F2"/>
<path d="M93.6697 79.1166L51.5065 89.9809C51.3078 90.0323 51.1008 90.0441 50.8976 90.0155C50.6943 89.987 50.4986 89.9187 50.3218 89.8145C50.1449 89.7104 49.9904 89.5724 49.8669 89.4086C49.7434 89.2447 49.6535 89.0581 49.6022 88.8595C49.551 88.6609 49.5394 88.4541 49.5681 88.251C49.5969 88.0479 49.6654 87.8525 49.7698 87.6759C49.8742 87.4992 50.0124 87.3449 50.1765 87.2217C50.3406 87.0985 50.5274 87.0088 50.7263 86.9577L92.8895 76.0934C93.2907 75.99 93.7166 76.0501 94.0735 76.2605C94.4303 76.4709 94.6889 76.8143 94.7924 77.2152C94.8959 77.6161 94.8357 78.0416 94.6252 78.3982C94.4146 78.7548 94.0709 79.0132 93.6697 79.1166Z" fill="#F2F2F2"/>
<path d="M32.2564 48.6445L19.5437 51.9202C19.3513 51.9696 19.1472 51.9406 18.9761 51.8398C18.8051 51.739 18.681 51.5744 18.6312 51.3823L15.713 40.0753C15.6636 39.883 15.6926 39.6791 15.7935 39.5082C15.8944 39.3372 16.0591 39.2133 16.2513 39.1635L28.9641 35.8878C29.1565 35.8384 29.3606 35.8674 29.5316 35.9682C29.7027 36.0691 29.8267 36.2336 29.8765 36.4257L32.7948 47.7327C32.8441 47.925 32.8152 48.1289 32.7143 48.2998C32.6133 48.4708 32.4487 48.5947 32.2564 48.6445Z" fill="#E6E6E6"/>
<path d="M38.1568 71.5073L25.4441 74.783C25.2517 74.8323 25.0476 74.8034 24.8765 74.7026C24.7054 74.6017 24.5814 74.4372 24.5316 74.2451L21.6134 62.938C21.564 62.7458 21.593 62.5419 21.6939 62.371C21.7948 62.2 21.9595 62.0761 22.1517 62.0263L34.8645 58.7506C35.0569 58.7012 35.261 58.7302 35.432 58.831C35.6031 58.9318 35.7271 59.0964 35.7769 59.2885L38.6951 70.5955C38.7445 70.7878 38.7156 70.9917 38.6147 71.1626C38.5137 71.3335 38.3491 71.4575 38.1568 71.5073Z" fill="#E6E6E6"/>
<path d="M44.0577 94.3703L31.3449 97.646C31.1526 97.6954 30.9485 97.6665 30.7774 97.5656C30.6063 97.4648 30.4823 97.3003 30.4325 97.1082L27.5143 85.8011C27.4649 85.6089 27.4938 85.4049 27.5948 85.234C27.6957 85.0631 27.8603 84.9391 28.0526 84.8894L40.7654 81.6136C40.9577 81.5643 41.1619 81.5932 41.3329 81.694C41.504 81.7949 41.628 81.9594 41.6778 82.1515L44.596 93.4586C44.6454 93.6508 44.6165 93.8548 44.5155 94.0257C44.4146 94.1966 44.25 94.3205 44.0577 94.3703Z" fill="#E6E6E6"/>
<path d="M127.619 21.4216H54.2576C51.7703 21.4244 49.3857 22.413 47.6269 24.1704C45.8681 25.9277 44.8788 28.3105 44.876 30.7958V116.868C44.8788 119.353 45.8681 121.736 47.6269 123.493C49.3857 125.25 51.7703 126.239 54.2576 126.242H127.619C130.106 126.239 132.491 125.25 134.249 123.493C136.008 121.736 136.997 119.353 137 116.868V30.7958C136.997 28.3105 136.008 25.9277 134.249 24.1704C132.491 22.413 130.106 21.4244 127.619 21.4216Z" fill="#E6E6E6"/>
<path d="M127.619 24.1201H54.2576C52.4863 24.1221 50.7881 24.8261 49.5357 26.0775C48.2832 27.329 47.5786 29.0258 47.5767 30.7957V116.868C47.5787 118.637 48.2832 120.334 49.5357 121.586C50.7881 122.837 52.4863 123.541 54.2576 123.543H127.619C129.39 123.541 131.088 122.837 132.34 121.586C133.593 120.334 134.297 118.637 134.299 116.868V30.7957C134.297 29.0258 133.593 27.329 132.34 26.0776C131.088 24.8261 129.39 24.1221 127.619 24.1201Z" fill="white"/>
<path d="M116.577 71.4165H79.4791C79.2738 71.4168 79.0704 71.3765 78.8807 71.2982C78.6909 71.2199 78.5185 71.1049 78.3732 70.9599C78.228 70.8149 78.1128 70.6428 78.0341 70.4533C77.9555 70.2638 77.915 70.0606 77.915 69.8555C77.915 69.6503 77.9555 69.4472 78.0341 69.2577C78.1128 69.0682 78.228 68.896 78.3732 68.751C78.5185 68.6061 78.6909 68.4911 78.8807 68.4128C79.0704 68.3344 79.2738 68.2942 79.4791 68.2944H116.577C116.991 68.2949 117.388 68.4596 117.681 68.7523C117.973 69.045 118.138 69.4418 118.138 69.8555C118.138 70.2692 117.973 70.666 117.681 70.9587C117.388 71.2514 116.991 71.4161 116.577 71.4165Z" fill="#E6E6E6"/>
<path d="M123.022 76.6851H79.4791C79.2738 76.6853 79.0704 76.6451 78.8807 76.5668C78.6909 76.4884 78.5185 76.3735 78.3732 76.2285C78.228 76.0835 78.1128 75.9113 78.0341 75.7218C77.9555 75.5323 77.915 75.3292 77.915 75.124C77.915 74.9189 77.9555 74.7158 78.0341 74.5262C78.1128 74.3367 78.228 74.1646 78.3732 74.0196C78.5185 73.8746 78.6909 73.7597 78.8807 73.6813C79.0704 73.603 79.2738 73.5628 79.4791 73.563H123.022C123.436 73.563 123.833 73.7275 124.126 74.0202C124.419 74.313 124.584 74.71 124.584 75.124C124.584 75.5381 124.419 75.9351 124.126 76.2279C123.833 76.5206 123.436 76.6851 123.022 76.6851Z" fill="#E6E6E6"/>
<path d="M116.577 95.0273H79.4791C79.2738 95.0275 79.0704 94.9873 78.8807 94.9089C78.6909 94.8306 78.5185 94.7156 78.3732 94.5707C78.228 94.4257 78.1128 94.2535 78.0341 94.064C77.9555 93.8745 77.915 93.6713 77.915 93.4662C77.915 93.2611 77.9555 93.0579 78.0341 92.8684C78.1128 92.6789 78.228 92.5067 78.3732 92.3618C78.5185 92.2168 78.6909 92.1018 78.8807 92.0235C79.0704 91.9451 79.2738 91.9049 79.4791 91.9052H116.577C116.992 91.9052 117.389 92.0696 117.682 92.3624C117.975 92.6551 118.14 93.0522 118.14 93.4662C118.14 93.8802 117.975 94.2773 117.682 94.57C117.389 94.8628 116.992 95.0273 116.577 95.0273Z" fill="#E6E6E6"/>
<path d="M123.022 100.296H79.4791C79.2738 100.296 79.0704 100.256 78.8807 100.177C78.6909 100.099 78.5185 99.9842 78.3732 99.8392C78.228 99.6942 78.1128 99.5221 78.0341 99.3325C77.9555 99.143 77.915 98.9399 77.915 98.7348C77.915 98.5296 77.9555 98.3265 78.0341 98.137C78.1128 97.9475 78.228 97.7753 78.3732 97.6303C78.5185 97.4853 78.6909 97.3704 78.8807 97.292C79.0704 97.2137 79.2738 97.1735 79.4791 97.1737H123.022C123.227 97.1735 123.43 97.2137 123.62 97.292C123.81 97.3704 123.982 97.4853 124.128 97.6303C124.273 97.7753 124.388 97.9475 124.467 98.137C124.545 98.3265 124.586 98.5296 124.586 98.7348C124.586 98.9399 124.545 99.143 124.467 99.3325C124.388 99.5221 124.273 99.6942 124.128 99.8392C123.982 99.9842 123.81 100.099 123.62 100.177C123.43 100.256 123.227 100.296 123.022 100.296Z" fill="#E6E6E6"/>
<path d="M71.1693 79.0766H58.0406C57.842 79.0764 57.6516 78.9975 57.5112 78.8571C57.3707 78.7168 57.2917 78.5265 57.2915 78.3281V66.6511C57.2917 66.4527 57.3707 66.2624 57.5112 66.1221C57.6516 65.9817 57.842 65.9028 58.0406 65.9026H71.1693C71.3679 65.9028 71.5583 65.9817 71.6988 66.1221C71.8392 66.2624 71.9182 66.4527 71.9184 66.6511V78.3281C71.9182 78.5265 71.8392 78.7168 71.6988 78.8571C71.5583 78.9975 71.3679 79.0764 71.1693 79.0766Z" fill="#E6E6E6"/>
<path d="M71.1693 102.688H58.0406C57.842 102.687 57.6516 102.608 57.5112 102.468C57.3707 102.328 57.2917 102.138 57.2915 101.939V90.2621C57.2917 90.0636 57.3707 89.8734 57.5112 89.733C57.6516 89.5927 57.842 89.5138 58.0406 89.5135H71.1693C71.3679 89.5138 71.5583 89.5927 71.6988 89.733C71.8392 89.8734 71.9182 90.0636 71.9184 90.2621V101.939C71.9182 102.138 71.8392 102.328 71.6988 102.468C71.5583 102.608 71.3679 102.687 71.1693 102.688Z" fill="#E6E6E6"/>
<path d="M116.619 45.1328H89.2679C88.8535 45.1328 88.4561 44.9684 88.1632 44.6756C87.8702 44.3829 87.7056 43.9858 87.7056 43.5718C87.7056 43.1578 87.8702 42.7607 88.1632 42.468C88.4561 42.1752 88.8535 42.0107 89.2679 42.0107H116.619C117.033 42.0107 117.431 42.1752 117.724 42.468C118.016 42.7607 118.181 43.1578 118.181 43.5718C118.181 43.9858 118.016 44.3829 117.724 44.6756C117.431 44.9684 117.033 45.1328 116.619 45.1328Z" fill="#CCCCCC"/>
<path d="M123.063 50.4014H89.2679C89.0627 50.4014 88.8596 50.361 88.67 50.2826C88.4805 50.2041 88.3082 50.0891 88.1632 49.9442C88.0181 49.7992 87.903 49.6271 87.8245 49.4377C87.746 49.2483 87.7056 49.0453 87.7056 48.8403C87.7056 48.6353 87.746 48.4324 87.8245 48.243C87.903 48.0536 88.0181 47.8815 88.1632 47.7365C88.3082 47.5916 88.4805 47.4766 88.67 47.3981C88.8596 47.3197 89.0627 47.2793 89.2679 47.2793H123.063C123.478 47.2793 123.875 47.4438 124.168 47.7365C124.461 48.0293 124.626 48.4263 124.626 48.8403C124.626 49.2544 124.461 49.6514 124.168 49.9442C123.875 50.2369 123.478 50.4014 123.063 50.4014Z" fill="#CCCCCC"/>
<path d="M83.2143 56.7863H57.9991C57.8005 56.7861 57.6101 56.7071 57.4697 56.5668C57.3292 56.4265 57.2502 56.2362 57.25 56.0378V36.3745C57.2502 36.176 57.3292 35.9858 57.4697 35.8455C57.6101 35.7051 57.8005 35.6262 57.9991 35.626H83.2143C83.4129 35.6262 83.6033 35.7051 83.7438 35.8455C83.8842 35.9858 83.9632 36.176 83.9634 36.3745V56.0378C83.9632 56.2362 83.8842 56.4265 83.7438 56.5668C83.6033 56.7071 83.4129 56.7861 83.2143 56.7863Z" fill="#6DBE93"/>
</svg>
