<svg width="302" height="92" viewBox="0 0 302 92" fill="none" xmlns="http://www.w3.org/2000/svg">
<g clip-path="url(#clip0_256_200)">
<path d="M144.911 22.6143C144.911 34.3389 136.074 42.4691 123.451 42.4691H114.615C112.219 42.4691 110.486 40.7361 110.486 38.3398V7.14542C110.486 4.74914 112.219 3.01611 114.615 3.01611H123.451C136.246 3.01611 144.911 10.911 144.911 22.6143ZM118.552 10.3119V35.1733H123.387C131.346 35.1733 136.652 30.2096 136.652 22.6143C136.652 15.0189 131.581 10.2905 123.387 10.2905H118.552V10.3119Z" fill="#1D1D1B"/>
<path d="M177.774 26.081V26.2521C177.774 28.7554 175.977 30.3815 173.345 30.3815H156.485C157.448 34.0828 160.422 36.2438 164.787 36.2438C166.948 36.2438 169.152 35.6447 170.949 34.5107C171.548 34.147 172.083 33.9759 172.682 33.9759C174.543 33.9759 175.977 35.3452 175.977 37.2066C175.977 38.5331 175.378 39.4745 173.944 40.4373C171.248 42.2345 168.018 43.1973 164.552 43.1973C155.223 43.1973 148.355 36.5647 148.355 27.707C148.355 18.9135 154.988 12.2168 163.717 12.2168C171.805 12.2168 177.774 18.0791 177.774 26.081ZM156.507 24.7117H169.965C169.836 21.1814 167.333 18.7424 163.567 18.7424C160.037 18.7424 157.405 21.0745 156.507 24.7117Z" fill="#1D1D1B"/>
<path d="M183.144 37.8691C182.181 36.9063 181.647 35.9008 181.647 34.7668C181.711 32.6059 183.444 31.1724 185.348 31.1724C186.075 31.1724 186.846 31.4077 187.445 31.9426C189.049 33.6115 191.874 36.0077 195.875 36.0077C199.405 36.0077 201.501 34.3389 201.501 31.6431C201.501 29.3752 200.132 28.4124 196.474 26.7435L192.237 24.8394C185.968 21.9724 182.674 18.5705 182.674 13.4784C182.674 6.84587 188.301 2.31006 195.768 2.31006C201.694 2.31006 205.16 5.07006 206.829 6.97425C207.663 7.87285 207.899 8.77145 207.899 9.54169C207.899 11.5742 206.037 13.1361 204.197 13.1361C203.491 13.1361 202.7 12.9008 201.994 12.3017C200.389 10.8682 198.592 9.4989 195.768 9.4989C192.901 9.4989 190.868 10.8682 190.868 13.3287C190.868 15.297 191.938 16.2598 195.468 17.8645L199.961 19.8329C206.529 22.764 209.696 25.9947 209.696 31.3649C209.696 38.6608 203.769 43.1966 195.896 43.1966C191.232 43.1752 186.075 41.0784 183.144 37.8691Z" fill="#1D1D1B"/>
<path d="M215.537 39.0463V6.41836C215.537 4.08627 217.206 2.28906 219.602 2.28906C221.934 2.28906 223.603 4.08627 223.603 6.41836V39.0463C223.603 41.3784 221.934 43.1756 219.602 43.1756C217.227 43.1756 215.537 41.3784 215.537 39.0463Z" fill="#1D1D1B"/>
<path d="M262.521 39.4738C262.521 41.5063 260.788 43.1752 258.755 43.1752C257.322 43.1752 256.124 42.4691 255.161 41.0784L246.325 28.5194H246.261H239.457V39.0459C239.457 41.378 237.724 43.1752 235.456 43.1752C233.124 43.1752 231.391 41.378 231.391 39.0459V7.08123C231.391 4.74914 233.124 3.01611 235.52 3.01611H246.282C254.712 3.01611 260.446 8.151 260.446 15.6822C260.446 20.4747 258.114 24.3473 254.284 26.551L261.408 36.4143C262.114 37.5054 262.521 38.511 262.521 39.4738ZM239.457 21.4161H246.218C249.919 21.4161 252.187 19.2124 252.187 15.7463C252.187 12.3445 249.855 10.1194 246.218 10.1194H239.457V21.4161Z" fill="#1D1D1B"/>
<path d="M301.482 39.303C301.482 41.4639 299.813 43.197 297.545 43.197C295.812 43.197 294.507 42.1914 293.715 40.33L292.047 36.2649H275.38L273.711 40.33C273.005 42.1914 271.678 43.197 269.945 43.197C267.677 43.197 265.944 41.4639 265.944 39.303C265.944 38.7039 266.115 37.9765 266.415 37.1421L279.915 5.04906C280.622 3.25185 281.948 2.28906 283.745 2.28906C285.542 2.28906 286.848 3.25185 287.575 5.04906L301.033 37.1421C301.375 37.9765 301.482 38.7039 301.482 39.303ZM277.99 29.6109H289.351L283.724 14.1849L277.99 29.6109Z" fill="#1D1D1B"/>
<path d="M111.277 67.3311V55.906C111.277 55.0501 111.898 54.4297 112.754 54.4297H116.605C119.621 54.4297 121.675 56.2697 121.675 58.9869C121.675 61.6827 119.579 63.5655 116.605 63.5655H114.166V67.3311C114.166 68.1655 113.545 68.8074 112.732 68.8074C111.898 68.8074 111.277 68.1655 111.277 67.3311ZM116.583 61.0408C117.91 61.0408 118.723 60.2492 118.723 58.9869C118.723 57.7674 117.91 56.9757 116.583 56.9757H114.166V61.0408H116.583Z" fill="#1D1D1B"/>
<path d="M133.828 67.4166C133.828 68.1868 133.229 68.8073 132.416 68.8073C131.795 68.8073 131.325 68.4435 131.046 67.7803L130.447 66.3254H124.478L123.879 67.7803C123.622 68.4435 123.152 68.8073 122.531 68.8073C121.718 68.8073 121.098 68.1868 121.098 67.4166C121.098 67.2026 121.162 66.9459 121.269 66.6463L126.104 55.157C126.361 54.5152 126.832 54.1729 127.473 54.1729C128.115 54.1729 128.586 54.5152 128.843 55.157L133.657 66.6463C133.785 66.9459 133.828 67.2026 133.828 67.4166ZM125.42 63.9505H129.485L127.473 58.4305L125.42 63.9505Z" fill="#1D1D1B"/>
<path d="M147.05 67.4809C147.05 68.2083 146.43 68.8074 145.702 68.8074C145.189 68.8074 144.761 68.5506 144.419 68.0585L141.252 63.5655H141.231H138.792V67.3311C138.792 68.1655 138.171 68.8074 137.358 68.8074C136.524 68.8074 135.903 68.1655 135.903 67.3311V55.8846C135.903 55.0502 136.524 54.4297 137.38 54.4297H141.231C144.248 54.4297 146.301 56.2697 146.301 58.9655C146.301 60.6771 145.467 62.0678 144.098 62.8595L146.644 66.3897C146.901 66.7748 147.05 67.1385 147.05 67.4809ZM138.792 61.0195H141.209C142.536 61.0195 143.349 60.2278 143.349 58.9869C143.349 57.7674 142.514 56.9757 141.209 56.9757H138.792V61.0195Z" fill="#1D1D1B"/>
<path d="M152.014 67.3311V57.0399H148.655C147.906 57.0399 147.328 56.4622 147.328 55.7348C147.328 54.986 147.906 54.4297 148.655 54.4297H158.261C159.032 54.4297 159.588 54.986 159.588 55.7348C159.588 56.4622 159.01 57.0399 158.261 57.0399H154.902V67.3311C154.902 68.1655 154.282 68.8074 153.447 68.8074C152.634 68.8074 152.014 68.1655 152.014 67.3311Z" fill="#1D1D1B"/>
<path d="M173.088 55.6491V67.3524C173.088 68.1654 172.489 68.8073 171.676 68.8073C170.97 68.8073 170.628 68.4008 170.243 67.9301L163.953 59.8426V67.331C163.953 68.1654 163.332 68.8073 162.519 68.8073C161.685 68.8073 161.064 68.1654 161.064 67.331V55.6277C161.064 54.8147 161.685 54.1729 162.476 54.1729C163.204 54.1729 163.525 54.5794 163.953 55.1142L170.221 63.1375L170.2 55.6491C170.2 54.8147 170.82 54.1729 171.655 54.1729C172.468 54.1942 173.088 54.8361 173.088 55.6491Z" fill="#1D1D1B"/>
<path d="M176.041 67.1171V55.8632C176.041 55.0502 176.661 54.4297 177.475 54.4297H184.385C185.155 54.4297 185.712 54.986 185.712 55.7348C185.712 56.4622 185.134 57.0399 184.385 57.0399H178.929V59.9069H182.674C183.401 59.9069 183.936 60.4418 183.936 61.1478C183.936 61.8325 183.401 62.3674 182.674 62.3674H178.929V65.9404H184.642C185.412 65.9404 185.968 66.5181 185.968 67.2455C185.968 67.9943 185.391 68.5506 184.642 68.5506H177.475C176.661 68.5506 176.041 67.9301 176.041 67.1171Z" fill="#1D1D1B"/>
<path d="M199.169 67.4809C199.169 68.2083 198.549 68.8074 197.821 68.8074C197.308 68.8074 196.88 68.5506 196.538 68.0585L193.371 63.5655H193.35H190.911V67.3311C190.911 68.1655 190.29 68.8074 189.477 68.8074C188.643 68.8074 188.022 68.1655 188.022 67.3311V55.8846C188.022 55.0502 188.643 54.4297 189.499 54.4297H193.35C196.367 54.4297 198.42 56.2697 198.42 58.9655C198.42 60.6771 197.586 62.0678 196.217 62.8595L198.763 66.3897C199.02 66.7748 199.169 67.1385 199.169 67.4809ZM190.911 61.0195H193.328C194.655 61.0195 195.468 60.2278 195.468 58.9869C195.468 57.7674 194.634 56.9757 193.328 56.9757H190.911V61.0195Z" fill="#1D1D1B"/>
<path d="M201.287 66.9031C200.945 66.5608 200.752 66.197 200.752 65.7905C200.774 65.0203 201.394 64.5068 202.079 64.5068C202.336 64.5068 202.614 64.5924 202.828 64.7849C203.405 65.384 204.411 66.2398 205.845 66.2398C207.107 66.2398 207.856 65.6408 207.856 64.678C207.856 63.8649 207.364 63.5226 206.058 62.9235L204.539 62.2389C202.293 61.2119 201.116 59.9924 201.116 58.1738C201.116 55.7989 203.127 54.1729 205.802 54.1729C207.92 54.1729 209.161 55.157 209.76 55.8417C210.059 56.1626 210.145 56.4836 210.145 56.7617C210.145 57.4891 209.482 58.0454 208.818 58.0454C208.562 58.0454 208.284 57.9598 208.027 57.7459C207.449 57.2324 206.807 56.7403 205.802 56.7403C204.775 56.7403 204.047 57.2324 204.047 58.1096C204.047 58.8156 204.432 59.158 205.695 59.7356L207.299 60.4417C209.653 61.4901 210.787 62.6454 210.787 64.571C210.787 67.1812 208.669 68.8073 205.845 68.8073C204.176 68.8073 202.336 68.0584 201.287 66.9031Z" fill="#1D1D1B"/>
<path d="M213.055 67.3096V55.6705C213.055 54.8147 213.654 54.1729 214.51 54.1729C215.344 54.1729 215.943 54.8147 215.943 55.6705V59.8426H222.191V55.6491C222.191 54.7933 222.79 54.1729 223.646 54.1729C224.48 54.1729 225.079 54.7933 225.079 55.6491V67.3096C225.079 68.1654 224.459 68.8073 223.646 68.8073C222.811 68.8073 222.191 68.1654 222.191 67.3096V62.4528H215.943V67.3096C215.943 68.1654 215.323 68.8073 214.51 68.8073C213.675 68.8073 213.055 68.1654 213.055 67.3096Z" fill="#1D1D1B"/>
<path d="M228.031 67.331V55.6491C228.031 54.8147 228.631 54.1729 229.486 54.1729C230.321 54.1729 230.92 54.8147 230.92 55.6491V67.331C230.92 68.1654 230.321 68.8073 229.486 68.8073C228.631 68.8073 228.031 68.1654 228.031 67.331Z" fill="#1D1D1B"/>
<path d="M233.873 67.3311V55.906C233.873 55.0501 234.493 54.4297 235.349 54.4297H239.2C242.217 54.4297 244.271 56.2697 244.271 58.9869C244.271 61.6827 242.174 63.5655 239.2 63.5655H236.761V67.3311C236.761 68.1655 236.141 68.8074 235.328 68.8074C234.493 68.8074 233.873 68.1655 233.873 67.3311ZM239.179 61.0408C240.505 61.0408 241.318 60.2492 241.318 58.9869C241.318 57.7674 240.505 56.9757 239.179 56.9757H236.761V61.0408H239.179Z" fill="#1D1D1B"/>
<path d="M246.132 66.9031C245.79 66.5608 245.597 66.197 245.597 65.7905C245.619 65.0203 246.239 64.5068 246.924 64.5068C247.181 64.5068 247.459 64.5924 247.673 64.7849C248.25 65.384 249.256 66.2398 250.689 66.2398C251.952 66.2398 252.701 65.6408 252.701 64.678C252.701 63.8649 252.208 63.5226 250.903 62.9235L249.384 62.2389C247.138 61.2119 245.961 59.9924 245.961 58.1738C245.961 55.7989 247.972 54.1729 250.647 54.1729C252.765 54.1729 254.006 55.157 254.605 55.8417C254.904 56.1626 254.99 56.4836 254.99 56.7617C254.99 57.4891 254.327 58.0454 253.663 58.0454C253.407 58.0454 253.128 57.9598 252.872 57.7459C252.294 57.2324 251.652 56.7403 250.647 56.7403C249.62 56.7403 248.892 57.2324 248.892 58.1096C248.892 58.8156 249.277 59.158 250.54 59.7356L252.144 60.4417C254.498 61.4901 255.632 62.6454 255.632 64.571C255.632 67.1812 253.514 68.8073 250.689 68.8073C249.021 68.8073 247.181 68.0584 246.132 66.9031Z" fill="#1D1D1B"/>
<path d="M111.277 86.5869V75.1618C111.277 74.306 111.898 73.6855 112.754 73.6855H119.407C120.178 73.6855 120.734 74.2418 120.734 74.9907C120.734 75.7181 120.156 76.2958 119.407 76.2958H114.166V79.826H118.252C119.022 79.826 119.579 80.4037 119.579 81.1311C119.579 81.88 119.001 82.4362 118.252 82.4362H114.166V86.5869C114.166 87.4214 113.567 88.0632 112.732 88.0632C111.876 88.0632 111.277 87.4214 111.277 86.5869Z" fill="#1D1D1B"/>
<path d="M136.567 80.7454C136.567 84.8319 133.25 88.0626 129.035 88.0626C124.821 88.0626 121.547 84.8533 121.547 80.7454C121.547 76.6375 124.842 73.4282 129.035 73.4282C133.25 73.4496 136.567 76.6589 136.567 80.7454ZM124.521 80.7454C124.521 83.4626 126.404 85.3882 129.057 85.3882C131.689 85.3882 133.593 83.4412 133.593 80.7454C133.593 78.0496 131.689 76.1026 129.057 76.1026C126.404 76.1026 124.521 78.0282 124.521 80.7454Z" fill="#1D1D1B"/>
<path d="M149.874 86.7367C149.874 87.4642 149.254 88.0632 148.526 88.0632C148.013 88.0632 147.585 87.8065 147.243 87.3144L144.076 82.8214H144.055H141.616V86.5869C141.616 87.4214 140.995 88.0632 140.182 88.0632C139.348 88.0632 138.727 87.4214 138.727 86.5869V75.1404C138.727 74.306 139.348 73.6855 140.204 73.6855H144.055C147.072 73.6855 149.126 75.5256 149.126 78.2214C149.126 79.933 148.291 81.3237 146.922 82.1153L149.468 85.6455C149.725 86.0307 149.874 86.3944 149.874 86.7367ZM141.616 80.2753H144.033C145.36 80.2753 146.173 79.4837 146.173 78.2428C146.173 77.0232 145.339 76.2316 144.033 76.2316H141.616V80.2753Z" fill="#1D1D1B"/>
<path d="M157.898 86.5864V74.9045C157.898 74.0701 158.497 73.4282 159.353 73.4282C160.187 73.4282 160.786 74.0701 160.786 74.9045V86.5864C160.786 87.4208 160.187 88.0626 159.353 88.0626C158.497 88.0626 157.898 87.4208 157.898 86.5864Z" fill="#1D1D1B"/>
<path d="M175.763 74.9045V86.6078C175.763 87.4208 175.164 88.0626 174.351 88.0626C173.645 88.0626 173.302 87.6561 172.917 87.1854L166.627 79.098V86.5864C166.627 87.4208 166.007 88.0626 165.194 88.0626C164.359 88.0626 163.739 87.4208 163.739 86.5864V74.8831C163.739 74.0701 164.359 73.4282 165.151 73.4282C165.878 73.4282 166.199 73.8347 166.627 74.3696L172.896 82.3929L172.874 74.9045C172.874 74.0701 173.495 73.4282 174.329 73.4282C175.142 73.4496 175.763 74.0915 175.763 74.9045Z" fill="#1D1D1B"/>
<path d="M190.74 74.9045V86.6078C190.74 87.4208 190.141 88.0626 189.328 88.0626C188.621 88.0626 188.279 87.6561 187.894 87.1854L181.604 79.098V86.5864C181.604 87.4208 180.983 88.0626 180.17 88.0626C179.336 88.0626 178.715 87.4208 178.715 86.5864V74.8831C178.715 74.0701 179.336 73.4282 180.128 73.4282C180.855 73.4282 181.176 73.8347 181.604 74.3696L187.873 82.3929L187.851 74.9045C187.851 74.0701 188.472 73.4282 189.306 73.4282C190.119 73.4496 190.74 74.0915 190.74 74.9045Z" fill="#1D1D1B"/>
<path d="M207.92 80.7454C207.92 84.8319 204.604 88.0626 200.389 88.0626C196.174 88.0626 192.901 84.8533 192.901 80.7454C192.901 76.6375 196.195 73.4282 200.389 73.4282C204.604 73.4496 207.92 76.6589 207.92 80.7454ZM195.874 80.7454C195.874 83.4626 197.757 85.3882 200.41 85.3882C203.042 85.3882 204.946 83.4412 204.946 80.7454C204.946 78.0496 203.042 76.1026 200.41 76.1026C197.757 76.1026 195.874 78.0282 195.874 80.7454Z" fill="#1D1D1B"/>
<path d="M221.485 74.8189C221.485 75.0757 221.442 75.3538 221.314 75.5892L216.5 87.0785C216.221 87.7417 215.772 88.0626 215.13 88.0626C214.488 88.0626 214.018 87.7417 213.761 87.0785L208.926 75.5892C208.819 75.3538 208.755 75.0757 208.755 74.8189C208.755 74.0487 209.375 73.4282 210.188 73.4282C210.808 73.4282 211.279 73.7919 211.536 74.4552L215.13 83.2915L218.703 74.4552C218.981 73.7919 219.452 73.4282 220.073 73.4282C220.886 73.4496 221.485 74.0487 221.485 74.8189Z" fill="#1D1D1B"/>
<path d="M233.68 86.6719C233.68 87.4422 233.081 88.0626 232.268 88.0626C231.648 88.0626 231.177 87.6989 230.899 87.0357L230.3 85.5808H224.33L223.731 87.0357C223.474 87.6989 223.004 88.0626 222.383 88.0626C221.57 88.0626 220.95 87.4422 220.95 86.6719C220.95 86.458 221.014 86.2012 221.121 85.9017L225.956 74.4124C226.213 73.7705 226.684 73.4282 227.326 73.4282C227.968 73.4282 228.438 73.7705 228.695 74.4124L233.509 85.9017C233.637 86.2012 233.68 86.458 233.68 86.6719ZM225.272 83.2059H229.337L227.326 77.6859L225.272 83.2059Z" fill="#1D1D1B"/>
<path d="M237.36 86.5869V76.2958H234.001C233.252 76.2958 232.674 75.7181 232.674 74.9907C232.674 74.2418 233.252 73.6855 234.001 73.6855H243.607C244.378 73.6855 244.934 74.2418 244.934 74.9907C244.934 75.7181 244.356 76.2958 243.607 76.2958H240.248V86.5869C240.248 87.4214 239.628 88.0632 238.794 88.0632C237.98 88.0632 237.36 87.4214 237.36 86.5869Z" fill="#1D1D1B"/>
<path d="M246.41 86.5864V74.9045C246.41 74.0701 247.009 73.4282 247.865 73.4282C248.7 73.4282 249.299 74.0701 249.299 74.9045V86.5864C249.299 87.4208 248.7 88.0626 247.865 88.0626C247.009 88.0626 246.41 87.4208 246.41 86.5864Z" fill="#1D1D1B"/>
<path d="M266.479 80.7454C266.479 84.8319 263.163 88.0626 258.948 88.0626C254.733 88.0626 251.46 84.8533 251.46 80.7454C251.46 76.6375 254.754 73.4282 258.948 73.4282C263.163 73.4496 266.479 76.6589 266.479 80.7454ZM254.434 80.7454C254.434 83.4626 256.316 85.3882 258.969 85.3882C261.601 85.3882 263.505 83.4412 263.505 80.7454C263.505 78.0496 261.601 76.1026 258.969 76.1026C256.316 76.1026 254.434 78.0282 254.434 80.7454Z" fill="#1D1D1B"/>
<path d="M280.664 74.9045V86.6078C280.664 87.4208 280.065 88.0626 279.252 88.0626C278.546 88.0626 278.204 87.6561 277.819 87.1854L271.529 79.098V86.5864C271.529 87.4208 270.908 88.0626 270.095 88.0626C269.261 88.0626 268.64 87.4208 268.64 86.5864V74.8831C268.64 74.0701 269.261 73.4282 270.052 73.4282C270.78 73.4282 271.101 73.8347 271.529 74.3696L277.797 82.3929L277.776 74.9045C277.776 74.0701 278.396 73.4282 279.231 73.4282C280.044 73.4496 280.664 74.0915 280.664 74.9045Z" fill="#1D1D1B"/>
<path d="M45.4438 90.0099C70.2226 90.0099 90.3099 69.9227 90.3099 45.1439C90.3099 20.365 70.2226 0.277832 45.4438 0.277832C20.665 0.277832 0.577759 20.365 0.577759 45.1439C0.577759 69.9227 20.665 90.0099 45.4438 90.0099Z" fill="#1D1D1B"/>
</g>
<defs>
<clipPath id="clip0_256_200">
<rect width="301.674" height="92" fill="white"/>
</clipPath>
</defs>
</svg>
