<svg width="190" height="166" viewBox="0 0 190 166" fill="none" xmlns="http://www.w3.org/2000/svg">
<g clip-path="url(#clip0_255_184)">
<path d="M189.54 0H0V125.48H189.54V0Z" fill="#012F89"/>
<path d="M96.16 18.5402H101.66L97.23 21.8602L98.95 27.1302L94.54 23.8902L90.13 27.1302L91.87 21.8602L87.4 18.5402H92.88L94.54 13.4102L96.16 18.5402Z" fill="#FBED21"/>
<path d="M96.4 103.49H101.9L97.47 106.81L99.18 112.07L94.78 108.83L90.37 112.07L92.11 106.81L87.64 103.49H93.12L94.78 98.3604L96.4 103.49Z" fill="#FBED21"/>
<path d="M117.43 97.8502H122.92L118.5 101.18L120.22 106.44L115.81 103.2L111.4 106.44L113.14 101.18L108.67 97.8502H114.15L115.81 92.7202L117.43 97.8502Z" fill="#FBED21"/>
<path d="M117.43 24.14H122.92L118.5 27.46L120.22 32.72L115.81 29.48L111.4 32.72L113.14 27.46L108.67 24.14H114.15L115.81 19L117.43 24.14Z" fill="#FBED21"/>
<path d="M133.04 39.7501H138.54L134.11 43.0701L135.83 48.3301L131.42 45.0901L127.01 48.3301L128.75 43.0701L124.29 39.7501H129.76L131.42 34.6201L133.04 39.7501Z" fill="#FBED21"/>
<path d="M133.04 82.4601H138.54L134.11 85.7801L135.83 91.0501L131.42 87.8001L127.01 91.0501L128.75 85.7801L124.29 82.4601H129.76L131.42 77.3301L133.04 82.4601Z" fill="#FBED21"/>
<path d="M138.9 60.7801H144.39L139.96 64.1001L141.68 69.3601L137.27 66.1201L132.87 69.3601L134.61 64.1001L130.14 60.7801H135.62L137.27 55.6401L138.9 60.7801Z" fill="#FBED21"/>
<path d="M74.72 24.1901H80.21L75.79 27.5101L77.5 32.7701L73.1 29.5301L68.69 32.7701L70.43 27.5101L65.96 24.1901H71.44L73.1 19.0601L74.72 24.1901Z" fill="#FBED21"/>
<path d="M59.54 39.7999H65.04L60.61 43.1199L62.33 48.3899L57.92 45.1399L53.51 48.3899L55.25 43.1199L50.78 39.7999H56.26L57.92 34.6699L59.54 39.7999Z" fill="#FBED21"/>
<path d="M53.9 60.8302H59.4L54.97 64.1502L56.69 69.4202L52.28 66.1702L47.87 69.4202L49.61 64.1502L45.15 60.8302H50.62L52.28 55.7002L53.9 60.8302Z" fill="#FBED21"/>
<path d="M59.54 82.5104H65.04L60.61 85.8404L62.33 91.1004L57.92 87.8504L53.51 91.1004L55.25 85.8404L50.78 82.5104H56.26L57.92 77.3804L59.54 82.5104Z" fill="#FBED21"/>
<path d="M74.9401 97.91H80.4301L76.0101 101.23L77.7201 106.49L73.3101 103.25L68.9101 106.49L70.6401 101.23L66.1801 97.91H71.6501L73.3101 92.77L74.9401 97.91Z" fill="#FBED21"/>
<path d="M59.8806 145.18C62.2686 145.18 63.4926 143.596 63.8166 142.288L62.2686 141.82C62.0406 142.612 61.3326 143.56 59.8806 143.56C58.5126 143.56 57.2406 142.564 57.2406 140.752C57.2406 138.82 58.5846 137.908 59.8566 137.908C61.3326 137.908 61.9926 138.808 62.1966 139.624L63.7566 139.132C63.4206 137.752 62.2086 136.312 59.8566 136.312C57.5766 136.312 55.5246 138.04 55.5246 140.752C55.5246 143.464 57.5046 145.18 59.8806 145.18ZM67.5255 143.728C66.7455 143.728 66.0255 143.152 66.0255 142.048C66.0255 140.932 66.7455 140.368 67.5255 140.368C68.3055 140.368 69.0255 140.932 69.0255 142.048C69.0255 143.164 68.3055 143.728 67.5255 143.728ZM67.5255 138.916C65.7615 138.916 64.4295 140.224 64.4295 142.048C64.4295 143.86 65.7615 145.18 67.5255 145.18C69.2895 145.18 70.6215 143.86 70.6215 142.048C70.6215 140.224 69.2895 138.916 67.5255 138.916ZM75.0493 142.144V140.728H71.5693V142.144H75.0493ZM79.1759 137.632C79.4399 137.632 79.5959 137.668 79.6799 137.692V136.348C79.5479 136.288 79.2239 136.228 78.8879 136.228C77.5799 136.228 76.7399 137.092 76.7399 138.424V139.096H75.7559V140.464H76.7399V145H78.3479V140.464H79.6799V139.096H78.3479V138.448C78.3479 137.788 78.8159 137.632 79.1759 137.632ZM84.5578 145H86.0818C86.0578 144.796 86.0218 144.388 86.0218 143.932V139.096H84.4258V142.528C84.4258 143.212 84.0178 143.692 83.3098 143.692C82.5658 143.692 82.2298 143.164 82.2298 142.504V139.096H80.6338V142.828C80.6338 144.112 81.4498 145.156 82.8778 145.156C83.5018 145.156 84.1858 144.916 84.5098 144.364C84.5098 144.604 84.5338 144.88 84.5578 145ZM89.321 141.604C89.321 140.92 89.729 140.38 90.425 140.38C91.193 140.38 91.517 140.896 91.517 141.556V145H93.113V141.28C93.113 139.984 92.441 138.94 90.977 138.94C90.341 138.94 89.633 139.216 89.273 139.828V139.096H87.725V145H89.321V141.604ZM100.361 136.312H98.7889V139.684C98.6209 139.372 98.1409 138.952 97.1209 138.952C95.4529 138.952 94.2889 140.308 94.2889 142.036C94.2889 143.824 95.4889 145.144 97.1689 145.144C97.9609 145.144 98.5609 144.784 98.8249 144.316C98.8249 144.592 98.8609 144.88 98.8849 145H100.409C100.385 144.76 100.361 144.328 100.361 143.932V136.312ZM95.8969 142.036C95.8969 140.98 96.5449 140.38 97.3609 140.38C98.1769 140.38 98.8129 140.968 98.8129 142.024C98.8129 143.092 98.1769 143.716 97.3609 143.716C96.5209 143.716 95.8969 143.092 95.8969 142.036ZM103.256 141.376C103.292 140.836 103.748 140.212 104.576 140.212C105.488 140.212 105.872 140.788 105.896 141.376H103.256ZM106.052 142.912C105.86 143.44 105.452 143.812 104.708 143.812C103.916 143.812 103.256 143.248 103.22 142.468H107.444C107.444 142.444 107.468 142.204 107.468 141.976C107.468 140.08 106.376 138.916 104.552 138.916C103.04 138.916 101.648 140.14 101.648 142.024C101.648 144.016 103.076 145.18 104.696 145.18C106.148 145.18 107.084 144.328 107.384 143.308L106.052 142.912ZM114.353 136.312H112.781V139.684C112.613 139.372 112.133 138.952 111.113 138.952C109.445 138.952 108.281 140.308 108.281 142.036C108.281 143.824 109.481 145.144 111.161 145.144C111.953 145.144 112.553 144.784 112.817 144.316C112.817 144.592 112.853 144.88 112.877 145H114.401C114.377 144.76 114.353 144.328 114.353 143.932V136.312ZM109.889 142.036C109.889 140.98 110.537 140.38 111.353 140.38C112.169 140.38 112.805 140.968 112.805 142.024C112.805 143.092 112.169 143.716 111.353 143.716C110.513 143.716 109.889 143.092 109.889 142.036ZM120.597 145V144.28C120.909 144.784 121.533 145.144 122.349 145.144C124.029 145.144 125.133 143.812 125.133 142.024C125.133 140.272 124.137 138.94 122.409 138.94C121.533 138.94 120.885 139.324 120.621 139.744V136.312H119.049V145H120.597ZM123.537 142.036C123.537 143.116 122.889 143.716 122.073 143.716C121.269 143.716 120.597 143.104 120.597 142.036C120.597 140.956 121.269 140.368 122.073 140.368C122.889 140.368 123.537 140.956 123.537 142.036ZM128.156 147.328L131.864 139.096H130.16L128.708 142.552L127.136 139.096H125.348L127.856 144.256L126.464 147.328H128.156ZM43.111 154.332H41.671V155.16C41.671 155.688 41.383 156.096 40.759 156.096H40.459V157.512H41.527V160.26C41.527 161.4 42.247 162.084 43.399 162.084C43.867 162.084 44.155 162 44.299 161.94V160.62C44.215 160.644 43.999 160.668 43.807 160.668C43.351 160.668 43.111 160.5 43.111 159.984V157.512H44.299V156.096H43.111V154.332ZM46.9578 158.532C46.9938 157.884 47.3898 157.38 48.0618 157.38C48.8298 157.38 49.1538 157.896 49.1538 158.556V162H50.7498V158.28C50.7498 156.984 50.0538 155.94 48.5538 155.94C47.9898 155.94 47.3418 156.132 46.9578 156.588V153.312H45.3618V162H46.9578V158.532ZM53.5336 158.376C53.5696 157.836 54.0256 157.212 54.8536 157.212C55.7656 157.212 56.1496 157.788 56.1736 158.376H53.5336ZM56.3296 159.912C56.1376 160.44 55.7296 160.812 54.9856 160.812C54.1936 160.812 53.5336 160.248 53.4976 159.468H57.7216C57.7216 159.444 57.7456 159.204 57.7456 158.976C57.7456 157.08 56.6536 155.916 54.8296 155.916C53.3176 155.916 51.9256 157.14 51.9256 159.024C51.9256 161.016 53.3536 162.18 54.9736 162.18C56.4256 162.18 57.3616 161.328 57.6616 160.308L56.3296 159.912ZM67.4152 162V160.44H63.7432V158.472H67.0672V156.996H63.7432V155.052H67.4152V153.492H62.0872V162H67.4152ZM72.7101 162H74.2341C74.2101 161.796 74.1741 161.388 74.1741 160.932V156.096H72.5781V159.528C72.5781 160.212 72.1701 160.692 71.4621 160.692C70.7181 160.692 70.3821 160.164 70.3821 159.504V156.096H68.7861V159.828C68.7861 161.112 69.6021 162.156 71.0301 162.156C71.6541 162.156 72.3381 161.916 72.6621 161.364C72.6621 161.604 72.6861 161.88 72.7101 162ZM79.4774 156.072C79.3574 156.06 79.2374 156.048 79.1054 156.048C78.6014 156.048 77.7854 156.192 77.4254 156.972V156.096H75.8774V162H77.4734V159.3C77.4734 158.028 78.1814 157.632 78.9974 157.632C79.1414 157.632 79.2974 157.644 79.4774 157.68V156.072ZM83.1935 160.728C82.4135 160.728 81.6935 160.152 81.6935 159.048C81.6935 157.932 82.4135 157.368 83.1935 157.368C83.9735 157.368 84.6935 157.932 84.6935 159.048C84.6935 160.164 83.9735 160.728 83.1935 160.728ZM83.1935 155.916C81.4295 155.916 80.0975 157.224 80.0975 159.048C80.0975 160.86 81.4295 162.18 83.1935 162.18C84.9575 162.18 86.2895 160.86 86.2895 159.048C86.2895 157.224 84.9575 155.916 83.1935 155.916ZM89.1453 164.28V161.424C89.4333 161.82 90.0333 162.144 90.8493 162.144C92.5173 162.144 93.6333 160.824 93.6333 159.036C93.6333 157.284 92.6373 155.964 90.9093 155.964C90.0213 155.964 89.3613 156.36 89.0973 156.816V156.096H87.5493V164.28H89.1453ZM92.0613 159.048C92.0613 160.104 91.4133 160.716 90.5973 160.716C89.7813 160.716 89.1213 160.092 89.1213 159.048C89.1213 158.004 89.7813 157.392 90.5973 157.392C91.4133 157.392 92.0613 158.004 92.0613 159.048ZM96.0609 158.376C96.0969 157.836 96.5529 157.212 97.3809 157.212C98.2929 157.212 98.6769 157.788 98.7009 158.376H96.0609ZM98.8569 159.912C98.6649 160.44 98.2569 160.812 97.5129 160.812C96.7209 160.812 96.0609 160.248 96.0249 159.468H100.249C100.249 159.444 100.273 159.204 100.273 158.976C100.273 157.08 99.1809 155.916 97.3569 155.916C95.8449 155.916 94.4529 157.14 94.4529 159.024C94.4529 161.016 95.8809 162.18 97.5009 162.18C98.9529 162.18 99.8889 161.328 100.189 160.308L98.8569 159.912ZM101.17 160.392C101.17 161.316 101.938 162.168 103.198 162.168C104.074 162.168 104.638 161.76 104.938 161.292C104.938 161.52 104.962 161.844 104.998 162H106.462C106.426 161.796 106.39 161.376 106.39 161.064V158.16C106.39 156.972 105.694 155.916 103.822 155.916C102.238 155.916 101.386 156.936 101.29 157.86L102.706 158.16C102.754 157.644 103.138 157.2 103.834 157.2C104.506 157.2 104.83 157.548 104.83 157.968C104.83 158.172 104.722 158.34 104.386 158.388L102.934 158.604C101.95 158.748 101.17 159.336 101.17 160.392ZM103.534 160.98C103.018 160.98 102.766 160.644 102.766 160.296C102.766 159.84 103.09 159.612 103.498 159.552L104.83 159.348V159.612C104.83 160.656 104.206 160.98 103.534 160.98ZM109.594 158.604C109.594 157.92 110.002 157.38 110.698 157.38C111.466 157.38 111.79 157.896 111.79 158.556V162H113.386V158.28C113.386 156.984 112.714 155.94 111.25 155.94C110.614 155.94 109.906 156.216 109.546 156.828V156.096H107.998V162H109.594V158.604ZM121.271 162.192C123.095 162.192 124.547 161.076 124.547 158.988V153.492H122.891V158.868C122.891 159.984 122.279 160.572 121.271 160.572C120.287 160.572 119.663 159.984 119.663 158.868V153.492H118.007V158.988C118.007 161.076 119.459 162.192 121.271 162.192ZM127.829 158.604C127.829 157.92 128.237 157.38 128.933 157.38C129.701 157.38 130.025 157.896 130.025 158.556V162H131.621V158.28C131.621 156.984 130.949 155.94 129.485 155.94C128.849 155.94 128.141 156.216 127.781 156.828V156.096H126.233V162H127.829V158.604ZM134.837 162V156.096H133.241V162H134.837ZM133.049 154.164C133.049 154.692 133.493 155.136 134.033 155.136C134.585 155.136 135.017 154.692 135.017 154.164C135.017 153.612 134.585 153.168 134.033 153.168C133.493 153.168 133.049 153.612 133.049 154.164ZM139.197 160.728C138.417 160.728 137.697 160.152 137.697 159.048C137.697 157.932 138.417 157.368 139.197 157.368C139.977 157.368 140.697 157.932 140.697 159.048C140.697 160.164 139.977 160.728 139.197 160.728ZM139.197 155.916C137.433 155.916 136.101 157.224 136.101 159.048C136.101 160.86 137.433 162.18 139.197 162.18C140.961 162.18 142.293 160.86 142.293 159.048C142.293 157.224 140.961 155.916 139.197 155.916ZM145.149 158.604C145.149 157.92 145.557 157.38 146.253 157.38C147.021 157.38 147.345 157.896 147.345 158.556V162H148.941V158.28C148.941 156.984 148.269 155.94 146.805 155.94C146.169 155.94 145.461 156.216 145.101 156.828V156.096H143.553V162H145.149V158.604Z" fill="#012F89"/>
</g>
<defs>
<clipPath id="clip0_255_184">
<rect width="190" height="166" fill="white"/>
</clipPath>
</defs>
</svg>
