<svg width="582" height="392" viewBox="0 0 582 392" fill="none" xmlns="http://www.w3.org/2000/svg">
<g filter="url(#filter0_d_0_1)">
<rect x="16" y="12" width="550" height="360" rx="8" fill="white"/>
<rect x="16.5" y="12.5" width="549" height="359" rx="7.5" stroke="#2C393F" stroke-opacity="0.6"/>
</g>
<rect x="34" y="117" width="52" height="52" rx="4" fill="#D9D9D9"/>
<rect x="34.5" y="117.5" width="51" height="51" rx="3.5" stroke="#2C393F" stroke-opacity="0.6"/>
<rect x="34" y="204" width="52" height="52" rx="4" fill="#D9D9D9"/>
<rect x="34.5" y="204.5" width="51" height="51" rx="3.5" stroke="#2C393F" stroke-opacity="0.6"/>
<rect x="34" y="291" width="52" height="52" rx="4" fill="#D9D9D9"/>
<rect x="34.5" y="291.5" width="51" height="51" rx="3.5" stroke="#2C393F" stroke-opacity="0.6"/>
<rect x="188" y="30" width="52" height="52" rx="4" fill="#D9D9D9"/>
<rect x="188.5" y="30.5" width="51" height="51" rx="3.5" stroke="#2C393F" stroke-opacity="0.6"/>
<rect x="188" y="117" width="52" height="52" rx="4" fill="#D9D9D9"/>
<rect x="188.5" y="117.5" width="51" height="51" rx="3.5" stroke="#2C393F" stroke-opacity="0.6"/>
<rect x="188" y="204" width="52" height="52" rx="4" fill="#D9D9D9"/>
<rect x="188.5" y="204.5" width="51" height="51" rx="3.5" stroke="#2C393F" stroke-opacity="0.6"/>
<rect x="188" y="291" width="52" height="52" rx="4" fill="#D26949"/>
<rect x="188.5" y="291.5" width="51" height="51" rx="3.5" stroke="#2C393F" stroke-opacity="0.6"/>
<rect x="342" y="30" width="52" height="52" rx="4" fill="#D9D9D9"/>
<rect x="342.5" y="30.5" width="51" height="51" rx="3.5" stroke="#2C393F" stroke-opacity="0.6"/>
<rect x="342" y="117" width="52" height="52" rx="4" fill="#D9D9D9"/>
<rect x="342.5" y="117.5" width="51" height="51" rx="3.5" stroke="#2C393F" stroke-opacity="0.6"/>
<rect x="342" y="204" width="52" height="52" rx="4" fill="#D9D9D9"/>
<rect x="342.5" y="204.5" width="51" height="51" rx="3.5" stroke="#2C393F" stroke-opacity="0.6"/>
<rect x="342" y="291" width="52" height="52" rx="4" fill="#D9D9D9"/>
<rect x="342.5" y="291.5" width="51" height="51" rx="3.5" stroke="#2C393F" stroke-opacity="0.6"/>
<rect x="111" y="117" width="52" height="52" rx="4" fill="#6DBE93"/>
<rect x="111.5" y="117.5" width="51" height="51" rx="3.5" stroke="#2C393F" stroke-opacity="0.6"/>
<rect x="111" y="204" width="52" height="52" rx="4" fill="#D9D9D9"/>
<rect x="111.5" y="204.5" width="51" height="51" rx="3.5" stroke="#2C393F" stroke-opacity="0.6"/>
<rect x="111" y="291" width="52" height="52" rx="4" fill="#D9D9D9"/>
<rect x="111.5" y="291.5" width="51" height="51" rx="3.5" stroke="#2C393F" stroke-opacity="0.6"/>
<rect x="265" y="30" width="52" height="52" rx="4" fill="#D26949"/>
<rect x="265.5" y="30.5" width="51" height="51" rx="3.5" stroke="#2C393F" stroke-opacity="0.6"/>
<rect x="265" y="117" width="52" height="52" rx="4" fill="#D9D9D9"/>
<rect x="265.5" y="117.5" width="51" height="51" rx="3.5" stroke="#2C393F" stroke-opacity="0.6"/>
<rect x="265" y="204" width="52" height="52" rx="4" fill="#D9D9D9"/>
<rect x="265.5" y="204.5" width="51" height="51" rx="3.5" stroke="#2C393F" stroke-opacity="0.6"/>
<rect x="265" y="291" width="52" height="52" rx="4" fill="#D9D9D9"/>
<rect x="265.5" y="291.5" width="51" height="51" rx="3.5" stroke="#2C393F" stroke-opacity="0.6"/>
<rect x="419" y="30" width="52" height="52" rx="4" fill="#D9D9D9"/>
<rect x="419.5" y="30.5" width="51" height="51" rx="3.5" stroke="#2C393F" stroke-opacity="0.6"/>
<rect x="419" y="117" width="52" height="52" rx="4" fill="#D9D9D9"/>
<rect x="419.5" y="117.5" width="51" height="51" rx="3.5" stroke="#2C393F" stroke-opacity="0.6"/>
<rect x="419" y="204" width="52" height="52" rx="4" fill="#6DBE93"/>
<rect x="419.5" y="204.5" width="51" height="51" rx="3.5" stroke="#2C393F" stroke-opacity="0.6"/>
<rect x="419" y="291" width="52" height="52" rx="4" fill="#D9D9D9"/>
<rect x="419.5" y="291.5" width="51" height="51" rx="3.5" stroke="#2C393F" stroke-opacity="0.6"/>
<rect x="496" y="30" width="52" height="52" rx="4" fill="#D9D9D9"/>
<rect x="496.5" y="30.5" width="51" height="51" rx="3.5" stroke="#2C393F" stroke-opacity="0.6"/>
<rect x="496" y="117" width="52" height="52" rx="4" fill="#D9D9D9"/>
<rect x="496.5" y="117.5" width="51" height="51" rx="3.5" stroke="#2C393F" stroke-opacity="0.6"/>
<rect x="496" y="204" width="52" height="52" rx="4" fill="#D9D9D9"/>
<rect x="496.5" y="204.5" width="51" height="51" rx="3.5" stroke="#2C393F" stroke-opacity="0.6"/>
<path d="M525.172 315L519.808 309.636L521.222 308.222L529 316L521.222 323.778L519.808 322.364L525.172 317H513V315H525.172Z" fill="black"/>
<path d="M132.828 56.0001L138.192 61.3641L136.778 62.7783L129 55.0001L136.778 47.222L138.192 48.6362L132.828 54.0001L145 54.0001L145 56.0001L132.828 56.0001Z" fill="black"/>
<defs>
<filter id="filter0_d_0_1" x="0" y="0" width="582" height="392" filterUnits="userSpaceOnUse" color-interpolation-filters="sRGB">
<feFlood flood-opacity="0" result="BackgroundImageFix"/>
<feColorMatrix in="SourceAlpha" type="matrix" values="0 0 0 0 0 0 0 0 0 0 0 0 0 0 0 0 0 0 127 0" result="hardAlpha"/>
<feOffset dy="4"/>
<feGaussianBlur stdDeviation="8"/>
<feComposite in2="hardAlpha" operator="out"/>
<feColorMatrix type="matrix" values="0 0 0 0 0 0 0 0 0 0 0 0 0 0 0 0 0 0 0.1 0"/>
<feBlend mode="normal" in2="BackgroundImageFix" result="effect1_dropShadow_0_1"/>
<feBlend mode="normal" in="SourceGraphic" in2="effect1_dropShadow_0_1" result="shape"/>
</filter>
</defs>
</svg>
