<svg width="382" height="292" viewBox="0 0 382 292" fill="none" xmlns="http://www.w3.org/2000/svg">
<path d="M343.165 27.258H148.624C147.58 27.258 146.735 28.1047 146.735 29.149V290.109C146.735 291.153 147.58 292 148.624 292H343.165C344.208 292 345.054 291.153 345.054 290.109V29.149C345.054 28.1047 344.208 27.258 343.165 27.258Z" fill="white"/>
<path d="M343.165 292H148.624C148.123 291.999 147.643 291.8 147.289 291.445C146.935 291.091 146.735 290.61 146.735 290.109V29.1489C146.735 28.6476 146.935 28.1669 147.289 27.8124C147.643 27.4579 148.123 27.2585 148.624 27.2579H343.165C343.666 27.2585 344.146 27.4579 344.5 27.8124C344.854 28.1669 345.053 28.6476 345.054 29.1489V290.109C345.053 290.61 344.854 291.091 344.5 291.445C344.146 291.8 343.666 291.999 343.165 292ZM148.624 28.2034C148.373 28.2037 148.133 28.3034 147.956 28.4807C147.779 28.6579 147.68 28.8983 147.679 29.1489V290.109C147.68 290.36 147.779 290.6 147.956 290.777C148.133 290.954 148.373 291.054 148.624 291.054H343.165C343.415 291.054 343.655 290.954 343.833 290.777C344.01 290.6 344.109 290.36 344.109 290.109V29.1489C344.109 28.8983 344.01 28.6579 343.833 28.4807C343.655 28.3034 343.415 28.2037 343.165 28.2034H148.624Z" fill="#CACACA"/>
<path d="M315.304 86.5281H176.481C175.542 86.5281 174.641 86.1545 173.977 85.4896C173.313 84.8246 172.94 83.9228 172.94 82.9824C172.94 82.0421 173.313 81.1402 173.977 80.4753C174.641 79.8103 175.542 79.4368 176.481 79.4368H315.304C316.244 79.4368 317.144 79.8103 317.808 80.4753C318.473 81.1402 318.846 82.0421 318.846 82.9824C318.846 83.9228 318.473 84.8246 317.808 85.4896C317.144 86.1545 316.244 86.5281 315.304 86.5281Z" fill="#E6E6E6"/>
<path d="M315.304 109.457H176.481C175.542 109.457 174.641 109.083 173.977 108.418C173.313 107.753 172.94 106.851 172.94 105.911C172.94 104.971 173.313 104.069 173.977 103.404C174.641 102.739 175.542 102.365 176.481 102.365H315.304C316.244 102.365 317.144 102.739 317.808 103.404C318.473 104.069 318.846 104.971 318.846 105.911C318.846 106.851 318.473 107.753 317.808 108.418C317.144 109.083 316.244 109.457 315.304 109.457Z" fill="#E6E6E6"/>
<path d="M315.304 132.385H176.481C175.542 132.385 174.641 132.012 173.977 131.347C173.313 130.682 172.94 129.78 172.94 128.84C172.94 127.899 173.313 126.997 173.977 126.332C174.641 125.667 175.542 125.294 176.481 125.294H315.304C316.244 125.294 317.144 125.667 317.808 126.332C318.473 126.997 318.846 127.899 318.846 128.84C318.846 129.78 318.473 130.682 317.808 131.347C317.144 132.012 316.244 132.385 315.304 132.385Z" fill="#E6E6E6"/>
<path d="M315.304 155.314H176.481C175.542 155.314 174.641 154.94 173.977 154.275C173.313 153.61 172.94 152.708 172.94 151.768C172.94 150.828 173.313 149.926 173.977 149.261C174.641 148.596 175.542 148.222 176.481 148.222H315.304C316.244 148.222 317.144 148.596 317.808 149.261C318.473 149.926 318.846 150.828 318.846 151.768C318.846 152.708 318.473 153.61 317.808 154.275C317.144 154.94 316.244 155.314 315.304 155.314Z" fill="#E6E6E6"/>
<path d="M315.304 178.242H176.481C175.542 178.242 174.641 177.869 173.977 177.204C173.313 176.539 172.94 175.637 172.94 174.697C172.94 173.756 173.313 172.854 173.977 172.189C174.641 171.525 175.542 171.151 176.481 171.151H315.304C316.244 171.151 317.144 171.525 317.808 172.189C318.473 172.854 318.846 173.756 318.846 174.697C318.846 175.637 318.473 176.539 317.808 177.204C317.144 177.869 316.244 178.242 315.304 178.242Z" fill="#E6E6E6"/>
<path d="M176.292 130.719C176.207 131.014 176.145 131.317 176.108 131.622L151.502 144.057L145.894 140.393L139.266 148.144L148.563 155.595C149.314 156.197 150.24 156.539 151.202 156.569C152.164 156.6 153.109 156.317 153.897 155.763L179.561 137.724C180.647 138.197 181.852 138.328 183.014 138.099C184.177 137.87 185.242 137.292 186.068 136.442C186.895 135.592 187.443 134.511 187.641 133.341C187.838 132.171 187.675 130.969 187.174 129.895C186.672 128.82 185.856 127.924 184.833 127.325C183.81 126.726 182.63 126.454 181.448 126.543C180.267 126.633 179.141 127.08 178.22 127.826C177.299 128.572 176.626 129.581 176.292 130.719Z" fill="#A0616A"/>
<path d="M150.695 144.527L142.538 154.183C142.306 154.457 142.018 154.679 141.692 154.832C141.367 154.985 141.013 155.066 140.653 155.07C140.294 155.073 139.938 154.999 139.61 154.852C139.282 154.706 138.989 154.49 138.751 154.22L130.432 144.755C129.034 143.559 128.167 141.856 128.021 140.02C127.876 138.185 128.463 136.366 129.655 134.964C130.847 133.561 132.546 132.689 134.379 132.539C136.212 132.389 138.03 132.972 139.433 134.162L150.103 140.782C150.409 140.971 150.67 141.224 150.869 141.524C151.068 141.824 151.2 142.163 151.256 142.518C151.312 142.874 151.291 143.237 151.194 143.584C151.097 143.93 150.927 144.252 150.695 144.527Z" fill="#6C63FF"/>
<path d="M119.982 286.072H125.771L128.525 263.716H119.981L119.982 286.072Z" fill="#A0616A"/>
<path d="M118.505 284.179L129.906 284.179C131.832 284.179 133.681 284.945 135.043 286.31C136.406 287.674 137.171 289.524 137.171 291.453V291.689L118.506 291.69L118.505 284.179Z" fill="#2F2E41"/>
<path d="M118.678 223.817L120.324 229.373L142.514 225.66L140.084 217.46L118.678 223.817Z" fill="#A0616A"/>
<path d="M120.07 221.861L123.312 232.804C123.86 234.654 123.651 236.646 122.732 238.341C121.814 240.037 120.26 241.298 118.412 241.846L118.186 241.914L112.878 223.997L120.07 221.861Z" fill="#2F2E41"/>
<path d="M316.496 229.799H224.396C223.099 229.799 222.047 228.212 222.047 226.254C222.047 224.295 223.099 222.708 224.396 222.708H316.496C317.794 222.708 318.846 224.295 318.846 226.254C318.846 228.212 317.794 229.799 316.496 229.799Z" fill="#E6E6E6"/>
<path d="M316.496 250.128H224.396C223.099 250.128 222.047 248.54 222.047 246.582C222.047 244.624 223.099 243.036 224.396 243.036H316.496C317.794 243.036 318.846 244.624 318.846 246.582C318.846 248.54 317.794 250.128 316.496 250.128Z" fill="#E6E6E6"/>
<path d="M178.482 212.384C177.647 213.778 176.467 214.934 175.057 215.74C173.647 216.547 172.054 216.977 170.43 216.989L135.637 228.141L134.046 218.903L155.114 207.458L134.702 192.74L149.657 175.219L176.818 200.565C178.405 202.047 179.436 204.028 179.739 206.18C180.042 208.331 179.599 210.521 178.482 212.384Z" fill="#2C393F"/>
<path d="M128.02 275.562H119.43C111.717 222.629 103.866 169.547 127.066 149.734L154.429 154.194L150.929 177.448L135.657 194.969L128.02 275.562Z" fill="#2C393F"/>
<path d="M152.756 163.785C141.175 171.686 126.215 169.828 119.971 158.055C128.943 142.927 130.831 132.054 123.609 127.09C122.452 122.958 122.884 118.542 124.82 114.714C126.756 110.885 130.055 107.923 134.066 106.411L147.747 112.145C159.363 121.625 161.651 131.894 157.292 142.726L152.756 163.785Z" fill="#D26949"/>
<path d="M382 291.054H0V292H382V291.054Z" fill="#CACACA"/>
<path d="M72.4056 269.496C74.1624 270.114 76.0487 270.269 77.8826 269.946C79.7165 269.622 81.4364 268.832 82.8764 267.649C86.5439 264.568 87.6927 259.49 88.6291 254.791L91.3961 240.885L85.6033 244.877C81.4372 247.75 77.1766 250.714 74.292 254.874C71.4074 259.034 70.1481 264.714 72.4661 269.215" fill="#6DBE93"/>
<path d="M73.3006 287.298C72.5696 281.979 71.8212 276.593 72.3335 271.216C72.7878 266.442 74.2426 261.779 77.2046 257.955C78.7768 255.929 80.6898 254.194 82.8577 252.826C83.4243 252.469 83.9437 253.366 83.3804 253.722C79.6294 256.095 76.7281 259.6 75.0949 263.731C73.2911 268.324 73.0012 273.332 73.3124 278.212C73.5012 281.163 73.8988 284.095 74.3002 287.023C74.3319 287.155 74.3122 287.295 74.245 287.413C74.1779 287.532 74.0683 287.62 73.9385 287.661C73.8061 287.697 73.6648 287.679 73.5454 287.611C73.426 287.543 73.3384 287.431 73.3015 287.298H73.3006Z" fill="#F2F2F2"/>
<path d="M26.8311 279.353C27.7258 280.412 28.8777 281.221 30.1757 281.704C31.4738 282.187 32.8742 282.328 34.242 282.111C37.7523 281.515 40.3975 278.691 42.7636 276.028L49.7638 268.149L44.5466 268.53C40.7951 268.803 36.9481 269.101 33.5347 270.684C30.1213 272.266 27.18 275.435 26.976 279.196" fill="#6DBE93"/>
<path d="M20.825 290.34C22.055 287.376 23.2955 284.37 25.1828 281.753C26.8018 279.381 29.062 277.52 31.699 276.387C33.1216 275.819 34.6325 275.503 36.1636 275.454C36.563 275.44 36.5607 276.061 36.1636 276.074C33.5119 276.162 30.9569 277.092 28.8668 278.728C26.5489 280.551 24.8872 283.046 23.5736 285.657C22.7794 287.236 22.0994 288.869 21.4223 290.5C21.3987 290.578 21.3466 290.644 21.2765 290.684C21.2064 290.725 21.1236 290.738 21.0446 290.72C20.9654 290.698 20.898 290.646 20.8569 290.575C20.8158 290.504 20.8043 290.42 20.825 290.34Z" fill="#F2F2F2"/>
<path d="M78.5488 278.764C79.3023 279.911 80.338 280.844 81.5561 281.473C82.7743 282.102 84.1338 282.407 85.5037 282.357C89.0243 282.19 91.9594 279.73 94.6013 277.393L102.416 270.485L97.2442 270.238C93.5247 270.059 89.7095 269.893 86.1666 271.041C82.6238 272.19 79.3567 274.953 78.7089 278.625" fill="#6DBE93"/>
<path d="M71.239 290.356C74.7493 284.137 78.8214 277.225 86.0969 275.016C88.1198 274.404 90.2411 274.185 92.3463 274.37C93.0097 274.427 92.844 275.451 92.182 275.394C88.6531 275.101 85.1311 276.034 82.2089 278.036C79.397 279.952 77.2075 282.616 75.3541 285.442C74.2209 287.173 73.2024 288.977 72.1853 290.778C71.8604 291.354 70.9104 290.939 71.239 290.356Z" fill="#F2F2F2"/>
<path d="M372.85 280.664C371.494 281.141 370.039 281.26 368.623 281.011C367.208 280.761 365.881 280.151 364.77 279.239C361.94 276.861 361.052 272.942 360.331 269.314L358.196 258.583L362.667 261.665C365.882 263.882 369.17 266.169 371.396 269.38C373.621 272.59 374.594 276.973 372.805 280.447" fill="#6DBE93"/>
<path d="M371.616 290.85C372.009 287.982 372.413 285.076 372.137 282.178C371.958 279.593 371.047 277.113 369.511 275.027C368.663 273.935 367.631 272.999 366.462 272.262C366.157 272.069 365.877 272.553 366.179 272.744C368.202 274.024 369.766 275.914 370.647 278.142C371.619 280.619 371.776 283.319 371.608 285.95C371.507 287.541 371.292 289.122 371.075 290.701C371.058 290.772 371.069 290.847 371.105 290.911C371.141 290.975 371.2 291.023 371.27 291.045C371.342 291.063 371.418 291.053 371.482 291.017C371.546 290.98 371.594 290.92 371.614 290.849L371.616 290.85Z" fill="#F2F2F2"/>
<path d="M110.006 173.12C110.728 172.952 111.405 172.628 111.988 172.17C112.572 171.712 113.048 171.131 113.383 170.469C113.718 169.806 113.904 169.078 113.928 168.336C113.952 167.594 113.813 166.856 113.521 166.174L132.221 123.875L121.523 121.178L106.506 163.604C105.393 164.171 104.527 165.127 104.071 166.291C103.616 167.455 103.602 168.745 104.034 169.918C104.465 171.091 105.311 172.065 106.412 172.655C107.513 173.246 108.791 173.411 110.006 173.12Z" fill="#A0616A"/>
<path d="M129.689 131.44L119.285 126.564C118.989 126.426 118.727 126.225 118.515 125.975C118.304 125.725 118.148 125.433 118.06 125.118C117.972 124.803 117.952 124.473 118.002 124.15C118.053 123.826 118.173 123.518 118.353 123.245L124.676 113.684C125.394 112.173 126.681 111.009 128.255 110.446C129.83 109.883 131.563 109.968 133.074 110.682C134.586 111.396 135.754 112.68 136.321 114.255C136.889 115.829 136.81 117.564 136.102 119.08L132.832 130.03C132.739 130.344 132.579 130.634 132.363 130.88C132.147 131.126 131.881 131.322 131.583 131.456C131.285 131.59 130.961 131.657 130.634 131.655C130.308 131.652 129.985 131.579 129.689 131.44Z" fill="#D26949"/>
<path d="M152.767 103.296H125.38C124.816 103.296 124.276 103.071 123.878 102.672C123.48 102.274 123.256 101.733 123.255 101.169V89.3501C123.255 85.1498 124.921 81.1215 127.888 78.1514C130.854 75.1814 134.878 73.5128 139.073 73.5128C143.268 73.5128 147.292 75.1814 150.258 78.1514C153.225 81.1215 154.891 85.1498 154.891 89.3501V101.169C154.891 101.733 154.667 102.274 154.268 102.672C153.87 103.071 153.33 103.296 152.767 103.296Z" fill="#2F2E41"/>
<path d="M142.977 103.117C149.382 103.117 154.574 97.9181 154.574 91.5054C154.574 85.0926 149.382 79.894 142.977 79.894C136.572 79.894 131.38 85.0926 131.38 91.5054C131.38 97.9181 136.572 103.117 142.977 103.117Z" fill="#A0616A"/>
<path d="M158.634 90.5319H141.887L141.716 88.1248L140.857 90.5319H138.278L137.938 85.761L136.236 90.5319H131.247V90.2955C131.251 86.9741 132.57 83.7897 134.916 81.4411C137.262 79.0924 140.442 77.7713 143.76 77.7676H146.121C149.438 77.7713 152.619 79.0924 154.965 81.4411C157.31 83.7897 158.63 86.9741 158.634 90.2955V90.5319Z" fill="#2F2E41"/>
</svg>

