<svg width="183" height="136" viewBox="0 0 183 136" fill="none" xmlns="http://www.w3.org/2000/svg">
<g clip-path="url(#clip0_113_3512)">
<path d="M61.2164 6.48566C103.942 -6.0235 147.076 5.67651 167.373 33.9347C174.199 43.4374 179.69 54.5522 181.13 66.7044C182.565 78.8177 179.99 92.0734 170.5 105.944C157.363 125.145 142.196 132.58 127.948 134.163C113.623 135.754 100.043 131.447 90.1549 126.815C78.8966 121.543 66.5861 117.674 53.5263 115.373C40.211 113.026 23.652 108.206 12.8436 98.4249C7.4745 93.5661 3.54837 87.5055 2.10592 79.9047C0.66101 72.2911 1.68069 62.9851 6.4694 51.6014C17.1345 26.2482 38.6619 13.0891 61.2164 6.48566Z" stroke="#F2F2F2" stroke-width="3"/>
<path d="M48.1732 38.7809C48.1151 38.3213 47.9976 37.8712 47.8236 37.4419C47.8014 37.3607 47.7626 37.2851 47.7095 37.2197C47.6565 37.1544 47.5905 37.1008 47.5156 37.0624C47.4156 37.0364 47.3107 37.0352 47.21 37.059L45.6411 37.2992C45.5098 37.3052 45.3841 37.3541 45.2832 37.4383C45.0788 37.6533 45.2801 37.9996 45.2738 38.2962C45.2668 38.6297 44.9706 38.9005 44.6493 38.99C44.3215 39.0563 43.9832 39.0521 43.6571 38.9777L41.4633 38.6367C42.1094 38.4303 42.6845 38.0463 43.1229 37.5286C43.4116 37.1864 43.5652 36.5476 43.148 36.3856C43.024 36.3515 42.8948 36.3411 42.7669 36.355C41.773 36.3627 40.9909 35.5324 40.0604 35.1827C39.4648 34.9734 38.8184 34.9578 38.2135 35.1382C37.6086 35.3186 37.0761 35.6858 36.6924 36.1872L37.861 36.2436C37.971 36.2375 38.08 36.2666 38.1723 36.3267C38.4284 36.5372 38.11 36.9416 38.1461 37.2713C38.193 37.6996 38.7614 37.791 39.1899 37.8343C39.6184 37.8776 40.1619 38.226 39.9558 38.6043C37.8022 39.3464 35.6107 37.1535 33.349 37.4234C32.7766 37.4918 32.236 37.7168 31.6771 37.8582C28.2631 38.7225 24.7336 36.4166 21.246 36.9049C20.4706 37.0372 19.7086 37.2383 18.9689 37.5058C18.4942 37.6617 17.9991 37.8302 17.6542 38.1919C17.3093 38.5535 17.1781 39.172 17.5048 39.5501C16.6042 39.6243 15.6977 39.5381 14.8272 39.2955C15.0626 39.4264 15.2584 39.6183 15.3941 39.851C15.5298 40.0838 15.6004 40.3488 15.5984 40.6182C14.1923 40.8476 12.8234 41.2652 11.5286 41.8598C11.7702 42.2619 12.0525 42.6381 12.3709 42.9825L10.5908 44.1267C11.1922 44.2783 11.5032 45.0988 11.1534 45.6112C11.777 45.3336 12.1635 44.6156 12.8303 44.4701C13.2672 44.3747 13.7117 44.5535 14.1261 44.7214C14.5406 44.8894 14.9961 45.0523 15.4251 44.9262C15.8541 44.8002 16.1705 44.2436 15.8979 43.889C17.7317 43.3537 19.6268 43.0574 21.5364 43.0076C21.6837 42.9891 21.8331 43.0175 21.9634 43.0887C22.212 43.2612 22.1466 43.6339 22.1332 43.9363C22.1198 44.2387 22.3554 44.6362 22.6255 44.4999C22.3077 44.7756 22.5794 45.2947 22.8843 45.5846C23.1892 45.8745 23.5567 46.2746 23.37 46.6518C23.3213 46.7502 23.2387 46.829 23.1918 46.9283C23.0534 47.2215 23.2731 47.5633 23.5323 47.758C23.7914 47.9527 24.1088 48.0888 24.2888 48.3584C24.4688 48.6281 24.3871 49.1 24.0652 49.1376L23.1503 47.9754C22.8377 48.2997 22.6234 48.706 22.5323 49.1472C23.5025 49.9407 23.6484 51.5558 22.8362 52.5105C22.4211 52.9984 21.8308 53.2948 21.3157 53.6754C20.8005 54.0559 20.3238 54.5978 20.3251 55.2385C20.3274 56.3453 20.237 57.3737 20.6515 58.3999C21.416 60.2921 22.2986 62.1344 23.2941 63.9159C23.5555 64.3836 23.8934 64.8964 24.423 64.9769C23.7537 63.3467 23.1512 61.6912 22.6155 60.0102C22.9644 60.0116 23.3676 60.0393 23.5721 60.3222C23.7415 60.5563 23.7051 60.8748 23.7578 61.159C23.8247 61.4344 23.9363 61.6969 24.0882 61.9362L27.2843 67.6323C27.5492 68.1044 27.8532 68.6113 28.3595 68.8025C28.6833 68.9248 29.0578 68.9018 29.3558 69.0778C29.5894 69.2157 29.7467 69.4607 29.9848 69.5906C30.6581 69.9581 31.5944 69.2533 32.2236 69.6921C32.4035 69.8175 32.5179 70.0168 32.6837 70.1604C33.2648 70.6639 34.2181 70.3271 34.8889 70.7027C35.3213 70.9448 35.5453 71.4289 35.7759 71.8676C36.3536 72.9665 37.2882 74.0432 38.5261 74.1307C38.915 74.1582 39.3122 74.0844 39.6923 74.1709C40.0724 74.2575 40.4466 74.5893 40.3856 74.9746C40.281 75.635 40.6071 76.3581 40.5195 77.021C40.3599 78.2285 38.6481 78.7591 38.5011 79.9681C38.4689 80.2328 38.5193 80.5061 38.4563 80.7652C38.3791 81.0828 38.1407 81.3413 38.056 81.657C37.8954 82.2552 38.3238 82.8505 38.7944 83.253C39.265 83.6554 39.8263 84.0025 40.0836 84.5658C40.3555 85.1613 40.2219 85.8556 40.3104 86.5043C40.5034 87.9204 41.7259 88.9702 42.9841 89.6471C43.3674 89.8533 43.779 90.053 44.0271 90.4108C44.3509 90.8777 44.3187 91.4933 44.4268 92.0513C44.6916 93.4178 45.8414 94.5437 45.8741 95.9353C45.8973 96.9244 45.3477 97.8217 45.0195 98.7549C44.7117 99.6491 44.6003 100.599 44.693 101.54C44.7856 102.481 45.08 103.391 45.5562 104.208C45.8017 104.623 46.0954 105.014 46.2691 105.464C46.5791 106.267 46.4785 107.179 46.7644 107.991C47.1422 109.063 48.1806 109.95 48.0812 111.083C48.5526 112.062 49.5935 112.543 50.6403 112.835L52.5162 113.357C52.8754 113.457 53.2508 113.558 53.6165 113.486C53.9823 113.413 54.3314 113.109 54.3219 112.737C53.402 112.529 52.4525 112.308 51.6942 111.747C50.9358 111.187 50.4164 110.188 50.7041 109.289C50.8375 108.873 51.1213 108.391 50.8515 108.047C50.697 107.85 50.4144 107.799 50.2402 107.619C49.9683 107.338 50.0617 106.867 50.2571 106.529C50.4526 106.19 50.735 105.888 50.8139 105.505C50.8536 105.291 50.8271 105.07 50.7377 104.872C50.6483 104.673 50.5003 104.507 50.3137 104.395C50.6615 104.263 50.9779 104.06 51.2422 103.799C51.4864 103.52 51.5992 103.09 51.4071 102.772C51.9775 102.845 52.651 102.88 53.0254 102.444C53.3244 102.095 53.3039 101.574 53.1857 101.13C53.0676 100.686 52.8679 100.255 52.8617 99.7955C54.1775 99.8579 55.4963 99.8131 56.8049 99.6617C56.6156 99.0241 56.1856 98.4853 55.606 98.1595C56.1987 98.0592 56.7386 97.3493 56.9259 96.7778C57.1131 96.2063 57.0653 95.5839 56.9496 94.9937C56.9052 94.8418 56.8991 94.6812 56.9319 94.5263C56.9986 94.3135 57.2076 94.1837 57.4009 94.0726L60.3427 92.3823C60.5182 92.2943 60.6773 92.1767 60.8131 92.0348C61.1213 91.6726 61.0756 91.1258 60.9178 90.6771C60.76 90.2283 60.5072 89.8064 60.4464 89.3346C60.2646 87.9236 61.7743 86.9112 62.2838 85.583C62.4837 85.0617 62.5245 84.4951 62.5632 83.9382C62.6047 83.3399 62.6078 82.6451 62.1488 82.2596C61.7087 81.8901 61.0211 81.9725 60.5606 81.6288C60.1384 81.3136 59.9927 80.7016 59.5315 80.4471C59.1126 80.2159 58.5875 80.3629 58.1216 80.2542C57.3014 80.0628 56.7853 79.117 55.9476 79.0294C55.4749 78.98 54.94 79.2112 54.5527 78.9358C54.2113 78.6931 54.1976 78.2054 54.1327 77.7915C54.0188 77.1483 53.7107 76.5555 53.2498 76.0928C52.7888 75.6302 52.1973 75.32 51.5548 75.204C51.0675 75.1258 50.537 75.1555 50.1225 74.8876C49.7027 74.6163 49.5102 74.1083 49.1805 73.7326C48.649 73.1271 47.812 72.9119 47.028 72.7275L43.8387 71.9774C43.2725 71.8442 42.5428 71.7736 42.239 72.2698C42.149 72.4587 42.0854 72.659 42.0497 72.8652C41.9359 73.2382 41.7068 73.5655 41.3953 73.8001C41.0839 74.0346 40.7062 74.1643 40.3164 74.1705C40.0491 73.7144 39.6161 73.3792 39.1077 73.2348C38.7843 73.1446 38.4381 73.1346 38.1297 73.0019C37.9617 72.9199 37.8123 72.8044 37.6904 72.6626C37.5686 72.5208 37.477 72.3556 37.4212 72.1771C37.3654 71.9986 37.3466 71.8106 37.3659 71.6246C37.3852 71.4386 37.4423 71.2585 37.5336 71.0953C37.7175 70.7678 37.7885 70.3888 37.7357 70.0168C37.6829 69.6449 37.5092 69.3007 37.2414 69.0373C36.699 68.5502 35.9145 68.4325 35.1872 68.4812C34.9968 68.0654 35.3152 67.5963 35.6584 67.2941C36.0016 66.9919 36.4184 66.6948 36.4931 66.2436C36.6107 65.5338 35.7054 64.9947 35.0181 65.2063C34.3308 65.4179 33.8921 66.0859 33.6022 66.7443C33.4358 67.122 33.2943 67.5198 33.0319 67.8384C32.7694 68.1569 32.3468 68.385 31.947 68.2827C31.3811 68.138 31.1625 67.4653 31.0373 66.8945C30.8692 66.1286 30.7002 65.3521 30.7354 64.5688C30.7706 63.7854 31.0345 62.9811 31.6119 62.4509C32.5526 61.5867 33.9959 61.6715 35.2655 61.8093C34.9655 61.4712 35.0397 60.9013 35.3606 60.583C35.5301 60.4324 35.7336 60.3254 35.9537 60.2713C36.1738 60.2172 36.4038 60.2176 36.6237 60.2726C37.0063 60.3522 37.3509 60.5584 37.6022 60.8579C37.963 61.298 38.0656 61.8922 38.3383 62.3918C38.611 62.8913 39.2242 63.3174 39.7261 63.0494C40.1597 62.8179 40.2285 62.2165 40.1206 61.7368C40.0127 61.2572 39.7835 60.7908 39.8226 60.3007C39.8972 59.3655 40.8661 58.8026 41.7211 58.4175C42.5761 58.0323 43.5551 57.5144 43.6906 56.5861C43.6952 56.4043 43.7295 56.2246 43.792 56.0539C43.8868 55.9031 44.0186 55.7791 44.1749 55.6937C46.6702 54.0437 49.207 52.3737 52.0591 51.4721C52.2075 51.4252 52.2249 51.4774 52.3761 51.4406C52.5878 51.3182 52.4475 50.9797 52.2446 50.8433C52.0417 50.7069 51.7705 50.6024 51.719 50.3633C51.6812 50.1875 51.7847 50.015 51.8116 49.8372C51.8776 49.4004 51.3553 48.9971 50.9498 49.1717C50.7207 48.8682 51.174 48.5155 51.5405 48.4145C52.6412 48.1114 53.7711 47.9267 54.911 47.8636C55.0425 47.8427 55.1773 47.8656 55.2945 47.9289C55.4859 48.0616 55.4615 48.3659 55.3258 48.5553C55.1901 48.7447 54.9791 48.8636 54.81 49.0238C54.6252 49.2039 54.4935 49.4312 54.4291 49.6811C54.3647 49.9309 54.3701 50.1937 54.4448 50.4407C55.0398 50.7435 55.6868 51.0553 56.3458 50.9486C57.0049 50.8419 57.5899 50.101 57.2801 49.5093C56.9916 48.9583 56.1251 48.834 55.9761 48.2301C55.8016 47.523 56.802 46.8942 56.5766 46.2017C56.4779 45.8983 56.1758 45.7198 55.9439 45.5008C55.6701 45.2323 55.4838 44.8872 55.4096 44.5109C55.3354 44.1345 55.3766 43.7445 55.528 43.392C55.1503 43.4585 54.7622 43.4334 54.3963 43.3188C54.0303 43.2043 53.6972 43.0036 53.4248 42.7336C52.9217 42.2256 52.5203 41.4243 51.806 41.447C51.1504 41.4679 50.5858 42.2331 49.9728 41.9996C49.822 41.9422 49.663 41.8253 49.5169 41.8938C49.469 41.9249 49.4288 41.9665 49.3994 42.0154C49.3699 42.0644 49.352 42.1193 49.3469 42.1762C49.1911 42.9214 49.4591 43.7703 49.0532 44.4142C48.6115 45.1149 47.5898 45.212 47.0543 45.8438C46.7636 46.1868 46.651 46.649 46.3838 47.0106C46.1166 47.3722 45.5496 47.602 45.2289 47.2869C45.3865 46.9628 45.4295 46.5948 45.351 46.243C45.2724 45.8913 45.077 45.5766 44.7965 45.3504C44.4988 45.156 44.1779 44.9999 43.8413 44.8855C43.4652 44.7263 43.1075 44.5268 42.7743 44.2905C42.6073 44.1898 42.4717 44.0446 42.3825 43.8712C42.312 43.654 42.3215 43.4188 42.4093 43.208C42.5719 42.7416 42.8587 42.3285 43.2388 42.0133C43.6189 41.6981 44.0779 41.4928 44.5661 41.4195C44.993 41.3614 45.4899 41.3818 45.7724 41.0564C45.9219 40.8842 46.0004 40.6238 46.2173 40.5539C46.3561 40.526 46.5002 40.5438 46.6281 40.6045L48.2216 41.1657C48.3994 41.246 48.5951 41.2784 48.7892 41.2596C48.8855 41.2466 48.9733 41.1977 49.0351 41.1226C49.0968 41.0476 49.1278 40.952 49.122 40.8549C49.0711 40.5902 48.6639 40.4631 48.701 40.1961C48.7217 40.1095 48.7682 40.0313 48.8344 39.9718C49.4094 39.3594 50.1127 38.8818 50.8938 38.5732C51.675 38.2646 52.5147 38.1325 53.3528 38.1866C53.5539 38.5171 53.2358 38.9084 52.9711 39.1906C52.7065 39.4727 52.4938 39.9768 52.8139 40.1939C52.945 40.2609 53.0909 40.2938 53.2381 40.2895C53.6304 40.3427 54.0117 40.4584 54.3674 40.6322C54.918 40.872 55.4581 41.1343 55.9876 41.4192C55.9408 41.0699 55.8962 40.7019 56.0285 40.3753C56.1609 40.0487 56.537 39.7925 56.8655 39.9197C57.1821 40.0423 57.3444 40.4617 57.6817 40.5001C58.1316 40.5514 58.3091 39.8864 58.1212 39.4742C57.9333 39.062 57.5612 38.7168 57.5302 38.2648C57.5092 37.9599 57.6252 37.5817 57.3817 37.3971C57.2951 37.3417 57.1968 37.3072 57.0945 37.2963L51.0157 36.1771C50.6547 36.1107 50.1332 36.1616 50.1172 36.5285C50.1082 36.7333 50.2911 36.9359 50.2101 37.1241C50.1237 37.3251 49.8397 37.3067 49.6329 37.3778C49.3121 37.4881 49.1511 37.8693 49.1819 38.2073C49.2383 38.5432 49.3683 38.8625 49.5626 39.1422C49.1672 38.9767 48.5686 38.9463 48.1732 38.7809Z" fill="#D9D9D9"/>
<path d="M43.3228 33.618C42.9395 33.4911 42.5264 33.4852 42.1396 33.6011C41.7528 33.717 41.411 33.9491 41.1605 34.2659C41.0604 34.3978 40.9763 34.5795 41.0601 34.7223C41.1803 34.927 41.4864 34.8462 41.7121 34.7729C42.0438 34.6544 42.4048 34.6457 42.7418 34.7484C42.9537 34.8211 43.1433 34.9498 43.3561 35.0198C43.4597 35.0632 43.5732 35.0775 43.6843 35.0613C43.7954 35.045 43.9 34.9988 43.9869 34.9276C44.133 34.7786 44.1422 34.5468 44.1424 34.3381C44.1526 34.2682 44.147 34.197 44.1261 34.1296C44.1052 34.0622 44.0695 34.0003 44.0217 33.9484C43.9365 33.899 43.8407 33.8707 43.7424 33.8658C43.5222 33.825 43.3231 33.7086 43.1795 33.5367" fill="#D9D9D9"/>
<path d="M45.5148 33.0076C45.429 33.0029 45.3435 33.0204 45.2664 33.0584C45.1893 33.0963 45.1233 33.1535 45.0747 33.2244C45.0261 33.2952 44.9965 33.3774 44.9888 33.463C44.9811 33.5486 44.9956 33.6348 45.0308 33.7132C45.2943 33.7851 45.5695 33.803 45.84 33.766C45.975 33.745 46.1007 33.6845 46.2014 33.5922C46.302 33.4999 46.3731 33.3798 46.4057 33.2471C46.0871 33.3051 45.7584 33.2423 45.4837 33.0709" fill="#D9D9D9"/>
<path d="M52.8691 31.9876C52.152 32.1402 51.4555 32.3769 50.7939 32.6929C51.1058 32.8129 51.3709 33.0299 51.5502 33.3119C51.7295 33.594 51.8134 33.9262 51.7897 34.2597C51.7617 34.3877 51.765 34.5206 51.7992 34.647C51.8754 34.8319 52.0962 34.9013 52.2904 34.9487C52.6392 35.0549 53.0035 35.1014 53.3678 35.0863C53.55 35.0767 53.727 35.0219 53.8827 34.9267C54.0384 34.8315 54.1679 34.699 54.2595 34.5411C54.3123 34.3912 54.3743 34.2447 54.445 34.1025C54.9104 33.3933 56.2929 34.2508 56.7926 33.5654C56.9686 33.324 56.9525 32.9605 57.1819 32.7692C57.3006 32.6859 57.4382 32.6334 57.5822 32.6164C58.587 32.4167 59.602 32.272 60.6226 32.1832C61.1062 32.1411 61.7365 31.9673 61.7405 31.4817C59.9191 31.1238 58.0304 31.378 56.3683 32.2048C55.7694 32.5049 54.9773 33.1361 54.4005 32.7383C54.1845 32.5893 54.1952 32.1882 53.8979 32.0207C53.594 31.8494 53.1917 31.9191 52.8691 31.9876Z" fill="#D9D9D9"/>
<path d="M58.8254 33.1022L59.6804 33.2666C59.523 33.2596 59.366 33.2863 59.2197 33.3449C59.0735 33.4034 58.9414 33.4925 58.8322 33.6062C58.7231 33.7199 58.6395 33.8556 58.5869 34.0042C58.5344 34.1528 58.5141 34.3109 58.5274 34.4679C59.3281 34.7355 60.2011 34.4751 61.0445 34.5107C61.8879 34.5463 62.8693 35.149 62.7253 35.9813C62.6818 36.2329 62.5365 36.4844 62.612 36.7283C62.665 36.8993 62.8157 37.0206 62.9008 37.1781C63.078 37.5062 62.9364 37.9213 62.7125 38.2196C62.4887 38.5178 62.1878 38.7558 61.9914 39.0728C61.5027 39.8612 61.7803 40.8805 62.0714 41.7613C62.1556 42.0941 62.311 42.4046 62.5269 42.6714C62.9582 43.1302 63.661 43.1701 64.2904 43.1793C64.7485 43.186 65.2733 43.1633 65.563 42.8082C65.9413 42.3446 65.6768 41.6212 65.9258 41.0771C66.152 40.5829 66.7282 40.3709 67.2502 40.2206C68.2066 39.9451 69.1812 39.7109 70.0854 39.2948C71.2081 38.7781 72.2574 37.973 73.4914 37.9064C73.8376 37.8878 74.1924 37.9287 74.5259 37.8338C74.8594 37.7389 75.1761 37.4504 75.1509 37.1044C75.1293 36.8088 74.8794 36.5918 74.684 36.369C74.4887 36.1461 74.3353 35.8035 74.5148 35.5677L77.7494 34.9632C77.5201 34.3381 77.3415 33.5147 77.8683 33.1078C78.0584 32.961 78.313 32.9023 78.4748 32.7248C78.7507 32.4223 78.612 31.9012 78.2935 31.6439C77.9751 31.3866 77.5445 31.3269 77.1366 31.293C75.7184 31.1752 74.2919 31.253 72.8709 31.331C70.0932 31.4833 67.3154 31.6356 64.5376 31.788C63.9784 31.8186 63.3328 31.7718 62.8199 31.9627C62.3857 32.1243 62.077 32.4209 61.5804 32.5251C60.6637 32.7175 59.6549 32.5873 58.8254 33.1022Z" fill="#D9D9D9"/>
<path d="M74.1429 39.8639C74.0558 39.8501 73.9667 39.8703 73.894 39.9204C73.846 39.9733 73.8174 40.041 73.813 40.1124C73.7578 40.4273 73.8236 40.7515 73.9971 41.02C74.0855 41.1517 74.2075 41.2573 74.3505 41.3259C74.4935 41.3945 74.6522 41.4235 74.8102 41.41C75.1952 41.3609 75.4789 41.0323 75.8329 40.8719C76.3784 40.625 78.6951 40.2401 77.0925 39.3738C76.5402 39.0753 76.1834 39.3388 75.7481 39.5354C75.2528 39.7889 74.6979 39.9025 74.1429 39.8639Z" fill="#D9D9D9"/>
<path d="M88.1797 32.6131C87.9926 32.6896 87.8361 32.8259 87.7345 33.0008C87.6878 33.0896 87.6769 33.193 87.7042 33.2896C87.7315 33.3862 87.7949 33.4686 87.8812 33.5198C87.9511 33.5451 88.0252 33.5569 88.0995 33.5544L88.8604 33.5772C89.1836 33.5868 89.5874 33.6557 89.6742 33.9674C89.7387 34.1988 89.5944 34.4961 89.7686 34.6615C89.8433 34.7194 89.9332 34.7545 90.0274 34.7625C90.278 34.8269 90.5398 34.8354 90.7941 34.7873C91.3477 34.6387 91.0568 34.3006 91.2311 33.9996C91.4979 33.539 91.4517 33.8179 91.9218 33.5539C92.269 33.3589 92.7176 33.0053 92.4278 32.5084C91.9239 31.6444 88.9233 32.2419 88.1797 32.6131Z" fill="#D9D9D9"/>
<path d="M103.198 32.1788L102.756 32.2378C101.76 32.3708 100.758 32.5051 99.7983 32.8044C100.214 32.9687 100.65 33.0757 101.094 33.1224C101.338 33.1344 101.581 33.169 101.819 33.2256C102.243 33.3519 102.67 33.6779 103.08 33.5109C103.334 33.4073 103.417 33.1428 103.627 33.0027C103.772 32.9059 104.323 32.7492 104.384 32.6515C104.882 31.8617 103.581 32.1277 103.198 32.1788Z" fill="#D9D9D9"/>
<path d="M105.138 34.1878C104.548 34.518 104 34.9192 103.507 35.3825C103.3 35.5777 103.088 35.8205 103.107 36.105C103.132 36.483 103.534 36.7023 103.883 36.85L105.295 37.4483C105.467 37.2067 105.31 36.8731 105.133 36.6357C104.956 36.3982 104.745 36.1235 104.823 35.8378C104.913 35.5117 105.31 35.4006 105.643 35.3444C106.186 35.2529 107.651 35.2602 107.475 34.3848C107.267 33.3533 105.683 33.883 105.138 34.1878Z" fill="#D9D9D9"/>
<path d="M104.854 92.5615C104.72 92.951 104.707 93.4098 104.94 93.7498C105.2 94.1314 105.723 94.2736 106.175 94.1768C106.625 94.0571 107.026 93.799 107.322 93.4391C107.592 93.1376 107.814 92.7962 107.981 92.427C108.214 91.8517 108.378 91.2509 108.47 90.6372L108.909 88.3335C109.007 87.8187 109.003 86.2402 108.057 86.7545C107.799 86.895 107.2 88.0042 106.93 88.3188C106.442 88.8857 106.377 89.4358 106.12 90.1226C105.798 90.9829 105.152 91.6998 104.854 92.5615Z" fill="#D9D9D9"/>
<path d="M154.808 104.35C154.498 104.229 154.198 104.086 153.909 103.922C153.62 104.719 153.466 105.559 153.454 106.406L155.571 105.207C155.89 105.027 156.251 104.777 156.244 104.41C156.247 104.365 156.238 104.32 156.217 104.28C156.196 104.239 156.165 104.205 156.127 104.181C156.08 104.162 156.029 104.156 155.979 104.164C155.665 104.19 155.378 104.344 155.082 104.452C154.786 104.559 154.439 104.616 154.168 104.457" fill="#D9D9D9"/>
<path d="M165.979 105.062C165.747 105.125 165.52 105.207 165.3 105.306C164.814 105.553 164.484 106.023 164.046 106.349C163.628 106.661 163.124 106.832 162.629 106.998C162.484 107.127 162.551 107.386 162.709 107.499C162.878 107.596 163.073 107.64 163.268 107.625C163.782 107.636 164.323 107.641 164.773 107.393C165.027 107.228 165.264 107.04 165.482 106.83C166.008 106.391 166.64 106.101 167.265 105.821C167.493 105.735 167.703 105.609 167.887 105.449C168.28 105.062 168.308 104.464 167.741 104.332C167.283 104.226 166.415 104.921 165.979 105.062Z" fill="#D9D9D9"/>
<path d="M170.915 101.836C170.941 101.569 170.905 101.301 170.812 101.05C170.718 100.799 170.569 100.572 170.375 100.388C170.369 100.921 170.353 101.489 170.053 101.93C169.839 102.245 169.504 102.457 169.27 102.756C169.036 103.056 168.932 103.53 169.207 103.793C169.383 103.926 169.596 104 169.817 104.003C170.363 104.067 170.996 104.103 171.379 103.708C171.588 103.493 171.69 103.173 171.945 103.015C172.04 102.975 172.125 102.914 172.194 102.837C172.299 102.669 172.132 102.448 171.943 102.388C171.755 102.328 171.547 102.356 171.358 102.299C171.168 102.241 170.995 102.028 171.092 101.856" fill="#D9D9D9"/>
<path d="M162.142 82.2803C161.856 82.3501 161.559 82.3676 161.266 82.332C160.779 82.2425 160.401 81.8757 160.008 81.5748C159.074 80.8635 157.939 80.4667 156.766 80.4414C155.698 80.4213 154.621 80.7106 153.573 80.5088C153.641 80.8899 153.967 81.1757 154.315 81.3457C154.663 81.5156 155.047 81.6011 155.396 81.7675C155.956 82.0367 156.4 82.4988 156.647 83.069C156.759 83.3318 156.83 83.6179 157 83.8474C157.349 84.3165 158.009 84.4195 158.592 84.3812C159.352 84.3312 160.146 84.1125 160.853 84.3958C161.394 84.6125 161.781 85.0862 162.233 85.4545C162.685 85.8228 163.321 86.0962 163.839 85.8304C163.301 85.6559 162.832 85.3137 162.501 84.8538C162.171 84.3939 161.996 83.8402 162.002 83.2738C162.511 83.3206 163.976 83.3025 163.897 82.4377C163.83 81.7049 162.579 82.2012 162.142 82.2803Z" fill="#D9D9D9"/>
<path d="M155.489 88.2429C155.579 87.7473 156.073 87.3097 155.919 86.83C155.813 86.4983 155.428 86.3345 155.08 86.3263C154.732 86.3182 154.39 86.4219 154.042 86.4317C153.815 86.4196 153.588 86.4229 153.362 86.4413C152.671 86.555 152.245 87.2795 151.594 87.5372C151.198 87.6938 150.753 87.6639 150.342 87.7722C149.407 88.018 148.815 88.9017 148.162 89.6142C147.106 90.7603 145.731 91.5628 144.214 91.9178C143.683 92.0409 143.111 92.1197 142.689 92.4651C142.129 92.9224 141.992 93.7064 141.867 94.4184C141.523 96.3846 140.998 98.3147 140.297 100.184L142.517 100.467C142.939 100.521 143.376 100.574 143.783 100.449C144.078 100.337 144.358 100.188 144.615 100.005C145.604 99.3912 146.71 98.9917 147.863 98.8324C148.444 98.7526 149.053 98.738 149.599 98.9541C150.144 99.1703 150.612 99.6605 150.658 100.246C150.894 100.172 151.145 100.164 151.385 100.223C151.625 100.281 151.845 100.404 152.021 100.577C152.368 100.932 152.596 101.386 152.671 101.877C152.73 102.181 152.788 102.545 153.07 102.672C153.3 102.776 153.564 102.664 153.815 102.644C154.668 102.576 155.377 103.571 156.215 103.4C157.115 103.216 157.336 101.868 158.213 101.598C158.717 101.443 159.424 101.631 159.665 101.162C159.878 100.749 159.454 100.272 159.498 99.8089C159.551 99.2389 160.223 98.997 160.742 98.7537C162.528 97.9152 163.375 95.5101 162.51 93.7362C161.997 92.6851 160.988 91.8578 160.802 90.7032C160.658 89.8148 161.008 88.7789 160.442 88.0797C160.154 87.724 159.667 87.5276 159.495 87.1032C159.387 86.836 159.431 86.5329 159.373 86.2507C159.315 85.9685 159.068 85.6733 158.79 85.7464C157.981 85.9588 157.723 88.4579 157.29 89.0651C156.632 89.9881 155.281 89.3801 155.489 88.2429Z" fill="#D9D9D9"/>
<path d="M140.543 83.2246C140.267 83.1471 139.965 83.0708 139.7 83.1815C139.435 83.2923 139.281 83.6812 139.493 83.8742C141.156 83.8094 142.828 83.7451 144.476 83.971C146.376 84.2312 148.255 84.8758 150.162 84.6862C149.073 84.3646 147.965 84.1074 146.846 83.9161L144.978 83.5592C144.477 83.4543 143.971 83.376 143.462 83.3248C142.397 83.2368 141.59 83.5185 140.543 83.2246Z" fill="#D9D9D9"/>
<path d="M142.207 77.432C142.069 77.4205 141.898 77.4105 141.827 77.5292C141.758 77.6427 141.837 77.7925 141.8 77.9197C141.75 78.0935 141.522 78.1379 141.343 78.1142C141.164 78.0906 140.97 78.0339 140.811 78.1204C140.731 78.1754 140.67 78.2551 140.639 78.3474C140.607 78.4398 140.607 78.5399 140.637 78.6326C140.702 78.8168 140.807 78.9842 140.944 79.1228C141.179 79.4189 141.447 79.6874 141.742 79.9232C142.313 80.3452 143.087 80.5485 143.447 81.161C143.498 81.2797 143.576 81.3848 143.675 81.4677C143.848 81.5772 144.073 81.4939 144.259 81.4089L144.911 81.1108C145.028 81.0685 145.133 80.9971 145.216 80.9034C145.365 80.7012 145.273 80.4137 145.148 80.1959C145.023 79.978 144.863 79.7526 144.89 79.5028C144.938 79.0575 145.51 78.8872 145.745 78.5062C145.983 78.1221 145.828 77.6273 145.855 77.1766C145.887 76.6496 146.218 75.9641 145.686 75.5703C145.233 75.2357 144.801 75.5449 144.476 75.9144C143.791 76.6935 143.467 77.5372 142.207 77.432Z" fill="#D9D9D9"/>
<path d="M146.165 69.5576C146.387 69.984 146.851 70.2385 147.094 70.6538C147.357 71.1039 147.327 71.6854 147.613 72.1217C147.906 72.5693 148.495 72.807 148.659 73.3161C148.838 73.8719 148.432 74.5475 148.756 75.0331C148.816 75.1125 148.893 75.1785 148.98 75.2268C149.067 75.2752 149.164 75.3048 149.263 75.314C149.362 75.3231 149.462 75.3115 149.557 75.2799C149.652 75.2483 149.739 75.1973 149.813 75.1303C149.949 74.9814 150.022 74.7849 150.016 74.5828C150.011 74.3806 149.926 74.1888 149.781 74.0482C149.589 73.8731 149.313 73.7974 149.153 73.5928C149.069 73.4748 149.014 73.3393 148.99 73.1966C148.903 72.785 148.917 72.3584 149.031 71.9534C149.074 71.8506 149.085 71.7373 149.062 71.6282C148.99 71.4184 148.706 71.4035 148.506 71.3061C148.054 71.085 148.065 70.4457 148.144 69.9478C148.091 70.2793 146.911 69.7155 146.787 69.5278C146.542 69.1548 146.676 68.4353 146.627 68.0232C146.097 68.2787 145.893 69.0362 146.165 69.5576Z" fill="#D9D9D9"/>
<path d="M134.276 76.1182C134.059 75.8743 133.731 75.6191 133.439 75.7662C133.216 75.8785 133.154 76.1869 133.242 76.4206C133.348 76.6477 133.512 76.8431 133.717 76.9874C134.325 77.4895 134.981 77.9427 135.512 78.5264C136.462 79.5709 136.965 80.9804 137.998 81.9427C138.206 82.1658 138.481 82.3147 138.781 82.3666C139.082 82.3946 139.42 82.2019 139.455 81.9014C139.483 81.6539 139.311 81.4323 139.142 81.2489C138.741 80.8121 138.301 80.4101 137.923 79.9537C137.748 79.7784 137.638 79.5486 137.611 79.3023C137.609 79.0565 137.833 78.7993 138.071 78.8602C137.781 78.7861 137.567 78.3037 137.142 78.213C136.787 78.1373 136.701 78.3571 136.279 78.1759C135.473 77.8301 134.841 76.7503 134.276 76.1182Z" fill="#D9D9D9"/>
<path d="M153.209 52.3649C152.978 52.2961 152.751 52.2149 152.529 52.1216C151.93 51.9419 151.139 52.3819 151.218 53.0017C151.271 53.4136 151.655 53.6912 151.866 54.0484C152.18 54.5782 152.096 55.2501 151.931 55.8434C151.891 56.0271 151.814 56.2008 151.705 56.3541C151.553 56.516 151.371 56.647 151.169 56.7399C150.361 57.1932 149.648 57.7988 149.071 58.5233C149.008 58.5902 148.964 58.6727 148.944 58.7623C148.916 58.9715 149.126 59.124 149.245 59.2985C149.509 59.6863 149.318 60.208 149.344 60.6765C149.34 60.7427 149.353 60.8089 149.382 60.8687C149.41 60.9285 149.454 60.98 149.508 61.0183C149.667 61.0992 149.856 60.9618 149.942 60.8054C150.228 60.2865 150.013 59.4536 150.55 59.2034C150.651 59.156 150.774 59.1361 150.842 59.0468C150.95 58.9052 150.846 58.6954 150.9 58.5261C150.982 58.272 151.33 58.2605 151.596 58.2718C152.056 58.291 152.515 58.2299 152.953 58.0911C153.125 58.0502 153.281 57.9597 153.402 57.8308C153.563 57.6304 153.549 57.3454 153.517 57.0905C153.356 55.8199 152.954 54.5919 152.332 53.4726C152.803 53.5329 153.317 53.5851 153.724 53.3392C153.952 53.2014 154.225 52.7895 154.112 52.5092C153.933 52.0658 153.61 52.439 153.209 52.3649Z" fill="#D9D9D9"/>
<path d="M92.7309 59.3529C92.7874 59.6558 92.8429 59.9748 92.7437 60.2665C92.6444 60.5583 92.3323 60.802 92.0375 60.7126C91.8087 60.6433 91.6766 60.4131 91.5142 60.2377C90.6108 59.262 88.5727 59.8269 88.0147 58.6197C87.7869 58.1271 87.9417 57.5368 87.7863 57.0168C87.6883 56.7162 87.4933 56.4567 87.2319 56.279C86.9705 56.1014 86.6576 56.0156 86.3422 56.0352C86.0545 56.0768 85.7745 56.1604 85.5111 56.2834C83.7467 56.9904 81.8944 57.4539 80.0051 57.6612C79.6461 57.6831 79.2909 57.7478 78.9472 57.8538C78.1714 58.1352 77.6413 58.8548 77.2641 59.589C76.8869 60.3233 76.6084 61.1182 76.1027 61.7706C75.5712 62.4562 74.8264 62.9363 74.1316 63.4556C73.864 63.6282 73.6411 63.8619 73.4814 64.1374C73.3308 64.4468 73.3393 64.8067 73.3509 65.1506L73.4929 69.3277C73.5112 69.865 73.5341 70.4215 73.7745 70.9023C74.0746 71.5027 74.6675 71.896 75.0788 72.4264C75.4986 72.9714 75.7173 73.6449 75.6978 74.3327C75.6891 74.6092 75.6616 74.9363 75.8769 75.11C76.0078 75.1949 76.161 75.239 76.3171 75.2366L81.9647 75.6991C82.9582 75.7804 84.0591 75.9142 84.7077 76.6715C85.0139 77.0289 85.2598 77.5428 85.7286 77.5812C85.9297 77.5976 86.1254 77.515 86.3266 77.4991C86.8341 77.4588 87.2799 77.8442 87.5613 78.2687C87.9872 78.9157 88.1805 79.6884 88.1095 80.4598C88.0634 80.944 87.9133 81.4148 87.881 81.9001C87.7579 83.7469 89.3226 85.3513 89.3529 87.2019C89.3708 88.2905 88.8543 89.3075 88.3507 90.2726C89.1634 91.5044 88.498 93.1447 88.8215 94.5848C89.1285 95.951 90.267 97.0205 90.5507 98.3917C90.6806 99.0195 90.6881 99.792 91.2414 100.115C91.4842 100.234 91.7533 100.288 92.0229 100.272C93.6492 100.291 95.2569 99.9249 96.7145 99.2032C97.3987 98.8635 98.1077 98.3565 98.2271 97.6018C98.3235 96.9932 98.015 96.3124 98.329 95.7822C98.699 95.1574 99.6469 95.207 100.191 94.7266C101.074 93.9472 100.386 92.4609 100.744 91.3384C101.065 90.3294 102.173 89.7934 102.721 88.8878C102.937 88.4983 103.092 88.078 103.181 87.6416C103.432 86.5983 103.589 85.5345 103.649 84.463C103.663 83.812 103.711 83.1622 103.792 82.5161C104.384 78.8378 108.019 76.3748 109.199 72.8412C109.311 72.5037 109.364 72.0542 109.064 71.8633C108.886 71.7783 108.684 71.7572 108.493 71.8034L105.889 72.1318C105.566 72.1726 105.223 72.2107 104.926 72.0764C104.629 71.942 104.416 71.5661 104.574 71.2806C105.016 70.4793 104.107 69.4667 103.703 68.6454C102.614 66.4341 101.318 64.3314 99.8322 62.3655C99.737 62.2644 99.6774 62.135 99.6625 61.9969L100.401 62.0215C100.152 61.1261 99.7403 60.1462 98.8708 59.8186C98.3809 59.6341 97.8383 59.6979 97.3155 59.7265C95.8182 59.8083 94.2129 59.5821 92.7309 59.3529Z" fill="#D9D9D9"/>
<path d="M97.3165 39.174C97.7083 39.5903 98.1474 40.0317 98.7143 40.1042C99.7156 40.2324 100.436 39.1964 100.894 38.2966C100.911 38.526 101.017 38.7397 101.189 38.8923C101.361 39.0449 101.585 39.1243 101.815 39.1137C102.062 39.0721 102.298 38.9798 102.508 38.8427C104.492 37.7579 106.714 37.1832 108.975 37.1701C108.953 36.9987 108.996 36.8254 109.094 36.6836C109.193 36.5417 109.34 36.4414 109.508 36.4019C109.968 36.3108 110.382 36.7084 110.604 37.1214C110.825 37.5344 110.964 38.0132 111.316 38.3223C111.668 38.6315 112.35 38.618 112.49 38.1703C112.623 37.7405 112.176 37.374 111.804 37.1206C111.432 36.8672 111.04 36.3982 111.29 36.0242C113.19 35.6035 115.101 35.1813 117.045 35.0976C117.376 35.1092 117.706 35.0523 118.014 34.9307C118.31 34.7851 118.546 34.4548 118.466 34.1342C118.042 34.2339 117.598 34.2051 117.19 34.0512C116.782 33.8973 116.43 33.6255 116.177 33.2703C118.874 33.0476 121.743 32.8578 124.133 34.1276C124.42 34.7436 122.958 35.2562 123.349 35.8118C123.474 35.989 123.724 36.0098 123.94 36.0139C125.601 36.0447 127.272 36.075 128.914 35.8241C129.514 35.7324 130.12 35.6029 130.723 35.6773C131.727 35.8011 132.585 36.4711 133.572 36.6895C133.974 36.7784 134.425 36.7815 134.764 36.5476C135.102 36.3137 135.248 35.7813 134.97 35.4772C135.9 34.5657 137.443 34.7916 138.669 35.228C139.896 35.6644 141.058 36.3682 142.356 36.4655C143.286 36.5353 144.23 36.2848 145.15 36.444C145.728 36.5441 146.266 36.8013 146.831 36.9594C147.899 37.2583 149.029 37.1952 150.139 37.2096C152.969 37.2477 155.768 37.8043 158.398 38.8517C158.74 38.9631 159.054 39.1484 159.316 39.3944C159.561 39.6566 159.686 40.064 159.522 40.3828L156.804 39.9855C157.06 40.4898 157.722 40.5757 158.26 40.7497C158.798 40.9237 159.356 41.5181 159.033 41.9821C158.45 41.7964 157.922 42.3794 157.627 42.9159C157.333 43.4523 156.974 44.0948 156.363 44.1275C155.816 44.1567 155.155 43.6908 154.798 44.1068C155.291 44.7285 155.713 45.4032 156.056 46.1183C156.408 46.8525 156.659 47.7776 156.183 48.4382C156.108 48.5561 155.994 48.6442 155.861 48.6875C155.473 48.7859 155.22 48.3101 154.941 48.0216C154.59 47.6581 154.058 47.5552 153.583 47.3847C153.107 47.2142 152.606 46.8789 152.568 46.3746C152.545 46.0609 152.711 45.7692 152.833 45.4792C153.038 44.9904 153.127 44.4609 153.095 43.9319C153.068 43.5062 152.949 43.0635 152.643 42.7661C152.338 42.4687 151.81 42.3744 151.482 42.6468C151.329 42.7738 151.206 42.9771 151.008 42.9847C150.657 42.9982 150.387 42.3856 150.104 42.5947C150.138 42.8175 150.091 43.0449 149.974 43.2371C149.131 43.9707 147.836 43.6603 146.749 43.9195C146.232 44.0675 145.737 44.2837 145.277 44.5624C145.105 44.636 144.959 44.7589 144.857 44.9156C144.721 45.1794 144.871 45.5172 145.11 45.6926C145.363 45.8482 145.648 45.9456 145.944 45.9775C147.269 46.2286 148.614 46.6173 149.66 47.4688C150.706 48.3204 151.392 49.728 151.061 51.036L148.448 48.5379C148.547 49.5868 148.603 50.6386 148.617 51.6932C148.634 51.8992 148.605 52.1063 148.534 52.3002C148.348 52.7118 147.843 52.8503 147.4 52.9412C147.277 52.9646 147.161 53.0138 147.058 53.0855C146.955 53.1572 146.869 53.2499 146.804 53.3574C146.74 53.4649 146.699 53.5848 146.684 53.7093C146.67 53.8337 146.681 53.9599 146.719 54.0795C146.876 54.5921 147.268 54.9918 147.627 55.39C147.986 55.7883 148.339 56.2409 148.386 56.775C148.433 57.3092 148.03 57.9112 147.495 57.8741C147.09 57.8459 146.789 57.4829 146.616 57.1151C146.444 56.7472 146.341 56.3374 146.081 56.0249C145.295 55.0788 143.529 55.4842 142.824 54.4756C142.645 54.6794 142.52 54.9256 142.463 55.1911C142.405 55.4565 142.416 55.7323 142.495 55.9922C142.823 55.787 143.271 55.9776 143.517 56.2758C143.764 56.574 143.88 56.9563 144.073 57.2913C144.334 57.7432 144.749 58.1439 144.786 58.6645C144.776 58.8613 144.779 59.0586 144.796 59.2551C144.86 59.5705 145.127 59.797 145.311 60.0607C145.741 60.6742 145.72 61.5171 145.443 62.2132C145.166 62.9093 144.668 63.491 144.175 64.0549C143.314 65.0399 142.435 66.0192 141.414 66.8372C141.122 67.0706 140.811 67.3001 140.63 67.6264C140.448 67.9528 140.439 68.4108 140.718 68.659C140.519 68.669 140.161 68.7672 139.961 68.7772C139.891 67.9764 139.876 67.1717 139.916 66.3688C139.128 65.9906 138.28 67.0036 138.382 67.8715C138.484 68.7395 139.111 69.4361 139.558 70.187C139.884 70.7362 140.127 71.3765 140.018 72.0062C139.909 72.6358 139.347 73.2167 138.711 73.1612C137.699 73.0728 137.275 71.6191 136.273 71.4527C136.185 71.4319 136.092 71.4411 136.009 71.4789C135.861 71.5606 135.835 71.7598 135.826 71.9294C135.785 72.7617 135.75 73.6272 136.075 74.3947C136.55 75.5174 137.777 76.4603 137.52 77.652C136.133 77.0069 135.412 75.4507 135.084 73.9559C134.757 72.4611 134.702 70.8918 134.115 69.4786C133.669 70.0501 132.733 69.5777 132.326 68.9781C131.939 68.4097 131.702 67.7521 131.327 67.1761C130.953 66.6 130.379 66.0841 129.693 66.0525C128.973 66.0193 128.349 66.5132 127.801 66.9799C127.35 67.3637 126.886 67.7625 126.623 68.293C126.239 69.065 126.339 69.975 126.321 70.837C126.301 71.7689 126.103 72.7521 125.468 73.4343C124.834 74.1166 123.662 74.3542 122.962 73.7393C122.596 73.4183 122.419 72.9388 122.262 72.4784C121.502 70.2594 120.869 67.9988 120.366 65.7077C120.248 66.2306 119.789 66.9046 119.351 66.5965C119.252 66.5137 119.173 66.411 119.117 66.2951C118.299 64.9083 116.785 64.0764 115.254 63.5777C113.724 63.0789 112.114 62.8463 110.601 62.2981C109.753 61.9908 108.943 61.5871 108.187 61.095C107.994 61.3783 107.881 61.7085 107.861 62.0506C107.841 62.3926 107.913 62.7339 108.071 63.0381C108.406 63.6328 109.166 63.9768 109.816 63.769C110.152 63.6616 110.436 63.4282 110.769 63.3129C111.103 63.1976 111.55 63.2542 111.696 63.5756C111.836 63.8832 111.625 64.2554 111.729 64.5766C111.889 65.0658 112.626 65.1034 112.884 65.5486C113.076 65.8798 112.918 66.3196 112.644 66.5869C112.37 66.8542 112.005 67.0008 111.67 67.1868C110.585 67.7905 109.814 68.8209 108.865 69.6227C107.917 70.4244 106.579 71.0098 105.449 70.4955C105.719 69.1308 104.094 68.1288 103.795 66.7703C103.696 66.3231 103.747 65.8481 103.607 65.4124C103.404 64.7814 102.844 64.3477 102.385 63.8695C101.829 63.2833 101.395 62.5915 101.11 61.8349C100.825 61.0783 100.694 60.2722 100.725 59.4642C100.75 58.9027 100.853 58.3321 100.725 57.7848C100.597 57.2376 100.145 56.7079 99.5834 56.7327C98.3016 56.7893 96.6869 56.8847 96.0144 55.7915C95.7744 55.4013 95.67 54.8299 96.017 54.531C96.2618 54.3201 96.6231 54.34 96.9446 54.3716L99.8325 54.6558C100.508 54.7223 101.238 54.7772 101.818 54.4239C102.397 54.0706 102.649 53.1328 102.112 52.7171C101.72 52.4134 101.017 52.4299 100.903 51.947C100.808 51.5449 101.253 51.0886 101.013 50.7525C100.84 50.5115 100.453 50.5784 100.218 50.759C99.9837 50.9397 99.8134 51.2039 99.5507 51.3406C99.0898 51.5806 98.5392 51.3522 98.0434 51.197C97.5476 51.0418 96.883 51.0286 96.6425 51.4894C96.3735 52.0046 96.881 52.6798 96.6141 53.1961C96.2612 53.8787 95.0662 53.4901 94.5706 54.0773C94.0019 54.751 94.9575 55.7557 94.7658 56.6165C94.5209 56.7378 94.2488 56.7935 93.976 56.7782C93.7032 56.7628 93.439 56.677 93.2093 56.529C92.9833 56.3752 92.8033 56.163 92.6882 55.9151C92.5732 55.6671 92.5275 55.3925 92.556 55.1206C92.6034 54.7334 92.8052 54.3382 92.67 53.9722C92.5607 53.6764 92.2638 53.5003 91.9879 53.3477L89.1814 51.7961C88.9209 52.2797 89.2503 52.8792 89.6622 53.2425C90.0742 53.6057 90.5902 53.8793 90.8609 54.3573C91.0321 54.6885 91.0704 55.0726 90.9682 55.4311C90.8659 55.7897 90.6306 56.0956 90.3105 56.2865C90.2704 56.3142 90.2247 56.3329 90.1767 56.3413C90.1287 56.3497 90.0794 56.3475 90.0323 56.3351C89.9875 56.3087 89.9485 56.2737 89.9175 56.232C89.8865 56.1903 89.8642 56.1428 89.8519 56.0923C89.3567 54.8245 88.6133 53.5745 87.4247 52.9122C86.2361 52.2499 84.5282 52.3861 83.7488 53.5018C83.5636 53.7667 83.4394 54.0688 83.2781 54.349C82.4213 55.8374 80.5844 56.5423 78.8682 56.4962C78.7003 56.5055 78.5333 56.4662 78.3871 56.3831C78.1098 56.1915 78.1223 55.7848 78.1647 55.4502L78.3449 54.0304C78.381 53.7453 78.4335 53.4301 78.659 53.2521C78.9769 53.0013 79.4356 53.1596 79.8405 53.1537C80.1472 53.1394 80.4421 53.031 80.6852 52.8433C80.9283 52.6556 81.1079 52.3976 81.1995 52.1044C81.2813 51.8082 81.2808 51.4954 81.198 51.1995C81.1152 50.9037 80.9533 50.636 80.7297 50.4255C80.5441 50.2511 80.2951 50.032 80.3931 49.7969C80.4322 49.7319 80.4851 49.6762 80.548 49.6338C80.6109 49.5914 80.6823 49.5634 80.7573 49.5516C81.4846 49.3403 82.253 49.2849 82.9682 49.0355C83.6833 48.7862 84.3769 48.2761 84.5462 47.5376C84.5982 47.3113 84.6218 47.0371 84.825 46.9249C84.9269 46.8818 85.0364 46.8595 85.1471 46.8591C85.5348 46.8039 85.8878 46.6055 86.1367 46.3029C86.3855 46.0003 86.5121 45.6155 86.4915 45.2243C86.8343 44.9846 87.3145 45.1609 87.646 45.4158C87.9776 45.6706 88.2703 46.0073 88.6738 46.1172C89.4256 46.3219 90.1522 45.6559 90.9314 45.6528C91.2591 45.6515 91.5983 45.7674 91.9066 45.6562C92.2191 45.5436 92.4058 45.2323 92.6456 45.0024C92.8855 44.7724 93.3063 44.6322 93.5278 44.8799L93.3392 43.4822C93.719 43.5782 94.115 43.5918 94.5005 43.5221C94.886 43.4523 95.2521 43.3009 95.5743 43.0779L93.1368 42.2539C93.0519 42.2327 92.9736 42.1908 92.9088 42.132C92.7316 41.941 92.9077 41.6435 93.0518 41.4265C93.3965 40.9073 93.4544 40.0521 92.8875 39.7936C92.5005 39.6172 92.0564 39.829 91.685 40.0362L89.9059 41.0287C89.8494 41.367 90.2629 41.5587 90.5192 41.7866C90.6742 41.9245 90.7839 42.1061 90.8339 42.3075C90.8839 42.5089 90.8719 42.7208 90.7994 42.9152C90.7268 43.1097 90.5972 43.2776 90.4275 43.397C90.2579 43.5164 90.056 43.5817 89.8486 43.5842C89.9658 43.7366 90.0472 43.9134 90.0868 44.1015C90.1264 44.2896 90.1232 44.4843 90.0774 44.671L88.8804 44.7571C88.7461 44.7842 88.6065 44.7569 88.4922 44.6813C88.3642 44.5675 88.3815 44.3682 88.3519 44.1995C88.2802 43.7923 87.8817 43.5069 87.475 43.4337C87.0682 43.3605 86.6521 43.4543 86.2494 43.5469C86.0783 43.6085 85.8905 43.6042 85.7225 43.5348C85.6262 43.4721 85.553 43.3797 85.5141 43.2715C85.3375 42.8432 85.5026 42.3397 85.7862 41.9734C86.0698 41.6071 86.458 41.3393 86.8067 41.0343C87.6405 40.3023 88.2531 39.3517 88.5753 38.2897C89.2342 38.0135 89.9164 37.6382 90.5754 37.3619C91.5913 36.8473 92.7306 36.6265 93.8651 36.7242L96.0967 36.7669C96.7574 36.7795 97.4359 36.7957 98.0469 37.0477C98.6578 37.2997 99.1946 37.8448 99.2368 38.5046C99.2495 38.5793 99.2431 38.656 99.218 38.7275C99.193 38.799 99.1502 38.863 99.0937 38.9134C99.0074 38.9605 98.9097 38.9826 98.8116 38.977C98.1954 38.9987 97.9327 39.1523 97.3165 39.174Z" fill="#D9D9D9"/>
<path d="M79.5297 46.1714C79.6169 46.0888 79.6797 45.9838 79.7111 45.8679C79.7425 45.752 79.7414 45.6296 79.7078 45.5143C79.4956 45.4324 79.2648 45.4114 79.0414 45.4536C78.8179 45.4958 78.6107 45.5996 78.443 45.7533C78.3108 45.8871 78.1969 46.0378 78.1042 46.2014C77.8109 46.6801 77.5516 47.2518 77.7215 47.7869C77.7354 47.8452 77.7607 47.9002 77.7961 47.9486C77.8315 47.9971 77.8762 48.0379 77.9275 48.0688C78.0037 48.0994 78.0858 48.1123 78.1677 48.1065C78.4907 48.106 78.8134 48.0862 79.1341 48.0469C79.331 48.0229 79.5597 47.9672 79.6358 47.7839C79.7359 47.543 79.4937 47.2703 79.5643 47.0191C79.6108 46.9068 79.6811 46.806 79.7705 46.7237C79.8149 46.6822 79.849 46.631 79.8701 46.5741C79.8912 46.5172 79.8987 46.4561 79.8921 46.3958C79.8637 46.2779 79.6833 46.211 79.6184 46.3134" fill="#D9D9D9"/>
<path d="M81.2045 43.9985C80.9176 43.9326 80.6218 43.914 80.3288 43.9435C80.264 43.9416 80.1998 43.9562 80.1422 43.9859C80.0864 44.0271 80.0459 44.0858 80.0272 44.1526C79.9653 44.3513 79.9805 44.566 80.0698 44.754C80.1591 44.9419 80.3158 45.0894 80.5089 45.1669C80.6141 45.1911 80.7149 45.2316 80.8076 45.287C81.0552 45.4793 80.8973 45.8723 80.9442 46.1824C80.9969 46.5307 81.3338 46.823 81.272 47.1697C81.2234 47.4429 80.9317 47.6592 80.9787 47.9327C81.0279 48.2191 81.3911 48.3052 81.6807 48.3281C81.8485 48.3575 82.0213 48.3377 82.1781 48.2711C82.3353 48.1635 82.4471 48.0015 82.4919 47.8164C82.6104 47.4633 82.6603 47.0908 82.6386 46.719C82.6374 46.5499 82.5949 46.3837 82.515 46.2347C82.4278 46.1166 82.3311 46.0059 82.2259 45.9036C81.6712 45.2579 82.2553 44.2948 81.2045 43.9985Z" fill="#D9D9D9"/>
<path opacity="0.8" d="M154.159 94.5775C154.159 94.5775 111.667 70.1743 93.3741 74.798C93.3741 74.798 54.6054 78.9723 50.1123 88.1556C50.1123 88.1556 37.7885 49.6242 33.2954 48.3398" stroke="#10AC59" stroke-width="2" stroke-miterlimit="10"/>
<path opacity="0.8" d="M50.1123 88.1556C57.237 69.1468 121.424 48.083 121.424 48.083C112.309 50.3949 93.3741 74.7981 93.3741 74.7981C93.3741 74.7981 53.3217 45.6427 33.2954 48.3399C33.2954 48.3399 121.488 51.2297 154.159 94.5775" stroke="#10AC59" stroke-width="2" stroke-miterlimit="10"/>
<path d="M33.2955 50.2022C34.3235 50.2022 35.1569 49.3684 35.1569 48.3399C35.1569 47.3113 34.3235 46.4775 33.2955 46.4775C32.2675 46.4775 31.4341 47.3113 31.4341 48.3399C31.4341 49.3684 32.2675 50.2022 33.2955 50.2022Z" fill="#10AC59"/>
<path d="M50.1124 90.0179C51.1404 90.0179 51.9738 89.1841 51.9738 88.1556C51.9738 87.127 51.1404 86.2932 50.1124 86.2932C49.0844 86.2932 48.251 87.127 48.251 88.1556C48.251 89.1841 49.0844 90.0179 50.1124 90.0179Z" fill="#10AC59"/>
<path d="M121.423 49.9452C122.451 49.9452 123.285 49.1114 123.285 48.0828C123.285 47.0543 122.451 46.2205 121.423 46.2205C120.395 46.2205 119.562 47.0543 119.562 48.0828C119.562 49.1114 120.395 49.9452 121.423 49.9452Z" fill="#10AC59"/>
<path d="M154.159 96.4398C155.187 96.4398 156.02 95.606 156.02 94.5774C156.02 93.5489 155.187 92.7151 154.159 92.7151C153.131 92.7151 152.297 93.5489 152.297 94.5774C152.297 95.606 153.131 96.4398 154.159 96.4398Z" fill="#10AC59"/>
<path d="M93.3741 76.6602C94.4021 76.6602 95.2355 75.8264 95.2355 74.7979C95.2355 73.7694 94.4021 72.9355 93.3741 72.9355C92.3461 72.9355 91.5127 73.7694 91.5127 74.7979C91.5127 75.8264 92.3461 76.6602 93.3741 76.6602Z" fill="#10AC59"/>
</g>
<defs>
<clipPath id="clip0_113_3512">
<rect width="183" height="136" fill="white"/>
</clipPath>
</defs>
</svg>
